<?xml version="1.0" encoding="utf-8"?>
<!-- Generator: Adobe Illustrator 26.0.0, SVG Export Plug-In . SVG Version: 6.00 Build 0)  -->
<svg version="1.1" id="Layer_1" xmlns="http://www.w3.org/2000/svg" xmlns:xlink="http://www.w3.org/1999/xlink" x="0px" y="0px"
	 viewBox="0 0 514 346" style="enable-background:new 0 0 514 346;" xml:space="preserve">
<style type="text/css">
	.st0{fill:#F3F4F6;}
	.st1{fill:none;stroke:#3F444F;stroke-width:3;stroke-miterlimit:10;}
	.st2{fill:#E4E6E9;}
	.st3{fill:#D7DADF;}
	.st4{fill:#DDDFE2;}
	.st5{fill:#EAECEF;}
	.st6{fill:#EAEAEA;}
	.st7{fill:#F2F2F2;}
	.st8{fill:#F0F2F5;}
	.st9{fill:#E4E4E4;}
	.st10{fill:#3F444F;}
	.st11{fill:#343944;}
	.st12{fill:#111827;}
	.st13{fill:#23272F;}
	.st14{fill:#FFFFFF;}
	.st15{fill:#2F3541;}
</style>
<path class="st0" d="M510,261.8h-54c3.9-16.2,6-33.1,6-50.5c0-34.6-8.3-67.2-22.9-96h38.3c2.2,0,4-1.8,4-4c0-2.2-1.8-4-4-4h-42.6
	C398.6,43.2,330,0,251.4,0c-52.3,0-100.1,19.1-137,50.8H49.6c-2.2,0-4,1.8-4,4s1.8,4,4,4h56.1c-4.5,4.3-8.8,8.8-12.8,13.5H4
	c-2.2,0-4,1.8-4,4c0,2.2,1.8,4,4,4h82.2c-28.4,36-45.3,81.5-45.3,131c0,27.7,5.3,54.1,15,78.4H45.3c-2.2,0-4,1.8-4,4
	c0,2.2,1.8,4,4,4h13.9c1.5,3.2,3,6.5,4.6,9.6H16.5c-2.2,0-4,1.8-4,4c0,2.2,1.8,4,4,4H68c4.9,8.7,10.4,17,16.5,24.9h333.7
	c11.3-14.7,20.8-31.1,27.9-48.5h39.2c2.2,0,4-1.8,4-4c0-2.2-1.8-4-4-4h-36.1c1.7-4.6,3.2-9.2,4.5-14H510c2.2,0,4-1.8,4-4
	C514,263.6,512.2,261.8,510,261.8z"/>
<path id="Shape" class="st1" d="M250,17c107.5,0,195,87.5,195,195s-87.5,195-195,195c-107.5,0-195-87.5-195-195S142.5,17,250,17z
	 M304.6,346.9l-8.6,9.1c-11.9,12.7-28.7,19.9-46.1,19.9c-17,0-33.5-7-45.4-19.2l-0.7-0.7l-8.4-8.9v42c17.2,5.3,35.5,8.1,54.5,8.1
	c18.3,0,36.1-2.7,52.8-7.6l1.9-0.6V346.9z M175.6,325.9v55.8c2.3,1,4.7,2,7.1,2.9l2.4,0.9v-49.5L175.6,325.9z M324.6,325.7
	l-9.5,10.1v49.7c2.4-0.9,4.8-1.9,7.1-2.9l2.3-1V325.7z M155.6,303.4v68c2.3,1.4,4.7,2.7,7.1,4l2.4,1.3v-61.9
	c-2.9-3.1-5.6-6.3-8.2-9.7L155.6,303.4z M344.6,303.1c-2.5,3.4-5.2,6.6-8.1,9.8l-1.4,1.6v62c2.4-1.3,4.8-2.6,7.1-3.9l2.3-1.4V303.1z
	 M188.1,66.2c-17.8,7.6-34.2,18.5-48.5,32.3c6.6,16.5,22.7,28.3,41.5,28.7l0.9,0h7.4c28.9,0,52.4,23.3,52.9,52l0,0.9v50.7
	c0,2.9-2.3,5.2-5.2,5.2c-2.8,0-5.1-2.2-5.2-4.9l0-0.3v-50.7c0-23.2-18.7-42.1-41.7-42.4l-0.7,0H182c-18.5,0-34.9-9-45.1-22.8
	l-0.5-0.7v62c0,23,12.7,45.5,34.7,61.7c2.3,1.7,2.8,5,1.1,7.3c-1,1.4-2.6,2.1-4.2,2.1c-1.1,0-2.2-0.3-3.1-1
	c-11.8-8.7-21.2-19-27.9-30.3l-0.7-1.2v0.1c0,34.4,12.8,67.2,36.1,92.5l1,1l38.1,40.5c9.9,10.6,24,16.6,38.5,16.6
	c14.2,0,27.9-5.8,37.8-15.9l0.7-0.7l38.1-40.5c23.6-25.1,36.7-57.7,37.1-92.1l0-1.5c-6.6,11.8-16.3,22.5-28.5,31.5
	c-0.9,0.7-2,1-3.1,1c-1.6,0-3.2-0.7-4.2-2.1c-1.7-2.3-1.2-5.6,1.1-7.3c21.8-15.9,34.4-38,34.7-60.7l0-1v-62
	c-10,14-26.3,23.2-44.7,23.5l-1,0h-7.4c-23.2,0-42.1,18.7-42.4,41.7l0,0.7v50.7c0,2.9-2.3,5.2-5.2,5.2c-2.8,0-5.1-2.2-5.2-4.9l0-0.3
	v-50.7c0-28.9,23.3-52.4,52-52.9l0.9,0h7.4c19.2,0,35.6-11.9,42.4-28.7c-14.2-13.8-30.5-24.6-48.1-32.2
	c-17.6,17.6-39.5,27.4-61.9,27.4C227.7,93.7,205.7,83.9,188.1,66.2z M136.4,269.4v88.8c2.1,1.7,4.3,3.3,6.5,4.8l2.2,1.6v-76.5
	c0-0.2,0-0.3,0-0.5c-3-5.2-5.6-10.6-7.9-16.1L136.4,269.4z M363.6,269.4c-2.5,6.2-5.4,12.2-8.6,18c0,0.2,0,0.3,0.1,0.5l0,0.3v76.4
	c2.2-1.5,4.3-3.1,6.5-4.7l2.1-1.6V269.4z M125.9,74.5c-7.3,6.6-14.1,13.8-20.3,21.5l-1.4,1.8l2.3,2.7c8.8,10.2,9,26.1,0.5,36.4
	l-0.5,0.5l-3.4,3.9l3.4,3.9c8.8,10.2,9,26.1,0.5,36.4l-0.5,0.5l-3.4,3.9l3.4,3.9c8.8,10.2,9,26.1,0.5,36.4l-0.5,0.5l-3.4,3.9
	l3.4,3.9c8.8,10.2,9,26.1,0.5,36.4l-0.5,0.5l-3.3,3.8c9.1,13.4,9,32.2-0.7,45.5c-0.4,0.5-0.8,0.9-1.3,1.2c6.9,9.2,14.6,17.8,23,25.6
	l1.7,1.6V74.5z M374.1,74.5v274.9c9.1-8.2,17.4-17.3,24.7-27.2c-0.5-0.3-0.9-0.7-1.3-1.2c-9.6-13.1-9.8-31.5-1.2-44.8l0.5-0.7
	l-3.3-3.8c-8.8-10.2-9-26.1-0.5-36.4l0.5-0.5l3.4-3.9l-3.4-3.9c-8.8-10.2-9-26.1-0.5-36.4l0.5-0.5l3.4-3.9l-3.4-3.9
	c-8.8-10.2-9-26.1-0.5-36.4l0.5-0.5l3.4-3.9l-3.4-3.9c-8.8-10.2-9-26.1-0.5-36.4l0.5-0.5l2.3-2.7c-6.1-7.8-12.8-15-20-21.7
	L374.1,74.5z M265.1,320.3c2.9,0,5.2,2.3,5.2,5.2c0,2.8-2.2,5.1-4.9,5.2l-0.3,0h-33.6c-2.9,0-5.2-2.3-5.2-5.2c0-2.8,2.2-5.1,4.9-5.2
	l0.3,0H265.1z M96,284l-10.9,12.6c3,5.8,6.3,11.5,9.9,16.9C100.5,304.7,100.8,293,96,284z M404,284c-4.8,9-4.5,20.8,1,29.5
	c3.1-4.8,6-9.7,8.7-14.7l1.1-2.2L404,284z M234.7,265.6c4.1-1.7,9-1.1,14.1,1.8c0.1,0.1,0.5,0.2,1.2,0.3c0.3,0,0.5-0.1,0.7-0.1
	l0.3-0.1l0,0l0.2-0.1l0,0c4.9-2.8,9.5-3.5,13.6-2l0.5,0.2l1.9,0.8l0,0l4.3,1.9l0,0l2.4,1l0,0l3.2,1.4l0,0l2.7,1.2l0,0l2.2,1l1.8,0.8
	l0,0l1.7,0.9l0,0l1.7,0.8l0,0l1.6,0.8c0.3,0.1,0.5,0.3,0.8,0.4l1.5,0.8c1.2,0.7,2.3,1.3,3.2,1.9c2.2,1.4,3,4.1,2.1,6.5l-0.2,0.4l0,0
	l-0.4,0.7l0,0l-0.5,0.9l0,0l-0.6,0.9l0,0l-0.5,0.8l0,0l-0.6,0.9l0,0l-0.7,1l0,0l-0.5,0.7l0,0l-0.8,1.1l0,0l-0.6,0.7l0,0l-0.6,0.8
	l0,0l-0.7,0.8l0,0l-0.7,0.8c-0.5,0.5-1,1.1-1.6,1.6l-0.8,0.8l0,0l-0.9,0.8l0,0l-0.9,0.8l0,0l-1,0.8c-0.2,0.1-0.3,0.3-0.5,0.4l-1,0.8
	c-7.3,5.6-17.8,10.5-32,10.5c-15.2,0-26.2-5.6-33.5-11.7l-1-0.8l0,0l-0.9-0.8l0,0l-0.9-0.8l0,0l-0.8-0.8c-0.4-0.4-0.8-0.8-1.2-1.2
	l-0.7-0.8c-0.1-0.1-0.2-0.3-0.4-0.4l-0.7-0.8l0,0l-0.6-0.8l0,0l-0.6-0.7l0,0l-0.6-0.7l0,0l-0.5-0.7l0,0l-0.5-0.7l0,0l-0.7-0.9l0,0
	l-0.4-0.6l0,0l-0.7-1.1l0,0l-0.4-0.7l0,0l-0.5-0.9l0,0l-0.4-0.8c-1.2-2.4-0.4-5.3,1.9-6.8c0.7-0.5,1.6-1,2.5-1.5l1.4-0.8
	c0.2-0.1,0.5-0.3,0.8-0.4l1.6-0.8c0.3-0.1,0.5-0.3,0.8-0.4l2.6-1.3l0,0l2.6-1.3l0,0l3.5-1.6l0,0l3.2-1.5l0,0l4.7-2.1l0,0l4.3-1.9
	l0,0L234.7,265.6L234.7,265.6z M261.2,275.3c-1-0.4-2.8,0.1-4.8,1.2c-2,1.2-4.4,1.6-6,1.7c-0.2,0-0.5,0-0.7,0c-1.6-0.1-4-0.5-6-1.7
	c-2-1.2-3.9-1.6-4.8-1.2l-2.9,1.2l0,0l-2.5,1.1l0,0l-3.6,1.6l0,0l-3.1,1.4l0,0l-3.2,1.5l0,0l-1.6,0.7l0,0l-2.3,1.1l0,0l-1.5,0.7l0,0
	l-1.4,0.7c-0.2,0.1-0.5,0.2-0.7,0.4l0.5,0.6l0,0l0.5,0.7l0,0l0.6,0.7l0,0l0.6,0.7c0.1,0.1,0.2,0.2,0.3,0.4l0.7,0.7
	c0.1,0.1,0.2,0.3,0.4,0.4l0.8,0.8c5.8,5.6,15.3,11.7,29.5,11.7c12.8,0,21.9-5,27.8-10.1l0.9-0.8c0.3-0.3,0.6-0.5,0.8-0.8l0.8-0.8
	c0.1-0.1,0.2-0.3,0.4-0.4l0.7-0.7c0.1-0.1,0.2-0.2,0.3-0.4l0.6-0.7l0,0l0.6-0.7l0,0l0.5-0.7l0,0l0.5-0.6l0,0c-2-1.1-4.3-2.2-6.7-3.3
	l-3-1.4l0,0l-2.9-1.3l0,0l-4-1.8l0,0l-2.4-1.1l0,0l-2-0.9l0,0L261.2,275.3L261.2,275.3z M261.7,282.3c2.9,0,5.2,2.3,5.2,5.2
	c0,2.8-2.2,5.1-4.9,5.2l-0.3,0h-23.3c-2.9,0-5.2-2.3-5.2-5.2c0-2.8,2.2-5.1,4.9-5.2l0.3,0H261.7z M96.2,239L72.8,266
	c1.9,6.1,4,12.1,6.5,18l0.9,2.2L98.6,265c5.3-6.2,5.4-16.5,0.4-22.8l-0.4-0.4L96.2,239z M403.8,239l-2.4,2.7
	c-5.3,6.2-5.4,16.5-0.4,22.8l0.4,0.4l18.3,21.2c2.5-5.8,4.8-11.8,6.7-17.9l0.7-2.3L403.8,239z M96.2,194.2l-30.6,35.4
	c0.7,7.4,1.8,14.7,3.4,21.9l0.5,2.4l29-33.6c5.3-6.2,5.4-16.5,0.4-22.8l-0.4-0.4L96.2,194.2z M403.8,194.2l-2.4,2.7
	c-5.3,6.2-5.4,16.5-0.4,22.8l0.4,0.4l29,33.6c1.6-7.1,2.9-14.4,3.7-21.8l0.2-2.5L403.8,194.2z M403.8,149.4l-2.4,2.7
	c-5.3,6.2-5.4,16.5-0.4,22.8l0.4,0.4l33.7,39.1c0-0.8,0-1.6,0-2.4c0-9.1-0.7-18-1.9-26.7l-0.3-2.2L403.8,149.4z M96.2,149.4
	L67,183.1c-1.5,9.4-2.2,19.1-2.2,28.9l0,1.2l0,0l0,1.2l33.7-39.1c5.3-6.2,5.4-16.5,0.4-22.8l-0.4-0.4L96.2,149.4z M191,148.8
	c16.2,0,29.5,13,29.8,29.2l0,0.6v3.6c0,2.8-2.2,5.1-4.9,5.2l-0.3,0h-37.8c-16.2,0-29.5-13-29.8-29.2l0-0.6V154
	c0-2.8,2.2-5.1,4.9-5.2l0.3,0H191z M346.8,148.8c2.8,0,5.1,2.2,5.2,4.9l0,0.3v3.6c0,16.2-13,29.5-29.2,29.8l-0.6,0h-37.8
	c-2.8,0-5.1-2.2-5.2-4.9l0-0.3v-3.6c0-16.2,13-29.5,29.2-29.8l0.6,0H346.8z M191,159.3h-32.4c0.8,9.7,8.9,17.4,18.7,17.6l0.6,0h32.4
	c-0.8-9.7-8.9-17.4-18.7-17.6L191,159.3z M341.5,159.3H309c-9.9,0-18.1,7.5-19.2,17.1l-0.1,0.5h32.4c9.9,0,18.1-7.5,19.2-17.1
	L341.5,159.3z M402.2,106.4l-0.7,0.9c-5.3,6.2-5.4,16.5-0.4,22.8l0.4,0.4l26.8,31.1c-5.5-19.3-14-37.4-25-53.6L402.2,106.4z
	 M97.8,106.4c-11.2,16.1-19.9,34-25.5,53.3l-0.6,1.9l26.8-31.1c5.3-6.2,5.4-16.5,0.4-22.8l-0.4-0.4L97.8,106.4z M250,26.8
	c-42.3,0-81.2,14.2-112.4,38l-1.2,0.9v15.8c0,1.8,0.1,3.6,0.3,5.3c31.1-28.2,71-43.7,113.3-43.7c42.3,0,82.2,15.4,113.3,43.7
	c0.2-1.3,0.3-2.6,0.3-4l0-1.3V65.7C332.2,41.3,292.8,26.8,250,26.8z M250,53.7c-17.6,0-34.8,2.9-51,8.4c15,13.7,32.9,21.1,51.3,21.1
	c18.3,0,36.2-7.4,51.1-21C285.1,56.6,267.8,53.7,250,53.7z"/>
<path class="st2" d="M339.9,340.2h-25.5c0-1.9,1.5-3.3,3.3-3.3h18.8C338.4,336.9,339.9,338.4,339.9,340.2z"/>
<path class="st2" d="M333.9,336.9h-13.4l4.4-124.8l2.9,1.9L333.9,336.9z"/>
<path class="st2" d="M338,340.2h-25.5c0-1.9,1.5-3.3,3.3-3.3h18.8C336.5,336.9,338,338.4,338,340.2z"/>
<path class="st2" d="M325.3,213.2l64.2,37.2l-0.7-3.7c-0.1-0.7-0.5-1.4-1.1-1.8l-41.9-32.6c-0.8-0.6-1.8-0.8-2.7-0.5l-8.4,2.5
	c-0.8,0.2-1.6,0.1-2.4-0.3l-5.6-3.2L325.3,213.2z"/>
<path class="st2" d="M323.9,210.9L259.7,248l3.5,1.2c0.7,0.3,1.5,0.2,2.1-0.1l49.1-20.2c0.9-0.4,1.6-1.2,1.8-2.1l2-8.6
	c0.2-0.8,0.7-1.5,1.4-1.9l5.6-3.2L323.9,210.9z"/>
<path class="st2" d="M326.6,210.9v-74.4l-2.8,2.4c-0.5,0.5-0.9,1.1-1,1.9l-7.1,52.7c-0.1,1,0.2,1.9,0.9,2.6l6.4,6
	c0.6,0.6,0.9,1.4,0.9,2.2v6.5L326.6,210.9L326.6,210.9z"/>
<path class="st2" d="M331.4,336.9h-12.3l4.4-124.8h3.6L331.4,336.9z"/>
<path class="st2" d="M328.3,212.9c0.4-1.7-0.6-3.4-2.3-3.8c-1.7-0.4-3.4,0.6-3.8,2.3c-0.4,1.7,0.6,3.4,2.3,3.8
	C326.2,215.6,327.9,214.6,328.3,212.9z"/>
<path class="st2" d="M325,214.8c1.6,0,2.9-1.3,2.9-2.9c0-1.6-1.3-2.9-2.9-2.9s-2.9,1.3-2.9,2.9C322.2,213.5,323.5,214.8,325,214.8z"
	/>
<path class="st2" d="M260.9,248.4l61.3-36.5l0,0L259.7,248L260.9,248.4z"/>
<path class="st2" d="M331.4,336.1h-12.3v0.8h12.3V336.1z"/>
<path class="st2" d="M325.7,137.3l0.8,72l0,0v-72.8L325.7,137.3z"/>
<path class="st2" d="M389.2,249.2l-62.2-35v0.1l62.4,36.2L389.2,249.2z"/>
<path class="st2" d="M423.7,340.2h-40.8c0-3,2.4-5.4,5.3-5.4h30.2C421.3,334.9,423.7,337.3,423.7,340.2z"/>
<path class="st2" d="M414.1,334.9h-21.5l7-199.8l4.7,3.1L414.1,334.9z"/>
<path class="st2" d="M420.7,340.2h-40.8c0-3,2.4-5.4,5.3-5.4h30.2C418.3,334.9,420.7,337.3,420.7,340.2z"/>
<path class="st2" d="M400.3,136.9l102.8,59.5l-1.3-6.5c-0.1-0.7-0.5-1.4-1.1-1.8l-68.4-53.1c-0.8-0.6-1.8-0.8-2.7-0.5l-15.1,4.5
	c-0.8,0.2-1.6,0.1-2.4-0.3l-9.6-5.6L400.3,136.9z"/>
<path class="st2" d="M398.1,133.1l-102.8,59.5l6.3,2.2c0.7,0.3,1.5,0.2,2.1-0.1l81.5-33.5l4.3-18.2l10.7-6.2L398.1,133.1z"/>
<path class="st2" d="M402.5,133.1V14l-5,4.3c-0.5,0.5-0.9,1.1-1,1.9l-11.7,86c-0.1,1,0.2,1.9,0.9,2.6l11.4,10.9c0.6,0.6,1,1.4,1,2.2
	v11.1L402.5,133.1L402.5,133.1z"/>
<path class="st2" d="M410.2,334.9h-19.7l7-199.8h5.7L410.2,334.9z"/>
<path class="st2" d="M405,137.1c1.1-2.6-0.2-5.6-2.7-6.6c-2.6-1.1-5.5,0.2-6.6,2.7s0.2,5.6,2.7,6.6
	C400.9,140.9,403.9,139.6,405,137.1z"/>
<path class="st2" d="M404.2,136.6c1-2.4-0.1-5.1-2.5-6c-2.4-1-5,0.1-6,2.5c-1,2.4,0.1,5.1,2.5,6C400.5,140,403.2,138.9,404.2,136.6z
	"/>
<path class="st2" d="M297.2,193.3l98.2-58.5l-0.1,0l-99.9,57.9L297.2,193.3z"/>
<path class="st2" d="M410.2,333.6h-19.7v1.3h19.7V333.6z"/>
<path class="st2" d="M401,15.3l1.3,115.4l0.1,0V14L401,15.3z"/>
<path class="st2" d="M502.7,194.5l-99.5-56.1l0,0.1l99.9,57.9L502.7,194.5z"/>
<path class="st2" d="M96.6,243.5c-13.2,0-23.9-10.8-23.9-24v-55.2c0-13.2,10.8-24,23.9-24c13.2,0,23.9,10.8,23.9,24v55.2
	C120.5,232.7,109.8,243.5,96.6,243.5z"/>
<path class="st3" d="M97.9,340.4h-2.6V178.7c0-0.7,0.6-1.3,1.3-1.3c0.7,0,1.3,0.6,1.3,1.3V340.4z"/>
<path class="st3" d="M97.9,200.6L90.7,188c-0.4-0.6-1.2-0.8-1.8-0.5s-0.8,1.2-0.5,1.8l7.3,12.6L97.9,200.6z"/>
<path class="st3" d="M97.6,215.7l7.3-12.6c0.4-0.6,0.1-1.4-0.5-1.8c-0.6-0.4-1.4-0.1-1.8,0.5l-7.3,12.6L97.6,215.7z"/>
<path class="st2" d="M157.7,217.2c-16.7,0-30.4-13.7-30.4-30.5v-70.1c0-16.8,13.7-30.5,30.4-30.5c16.7,0,30.4,13.7,30.4,30.5v70.1
	C188,203.5,174.4,217.2,157.7,217.2z"/>
<path class="st3" d="M159.3,340.2H156V134.9c0-0.9,0.8-1.7,1.7-1.7s1.7,0.8,1.7,1.7L159.3,340.2L159.3,340.2z"/>
<path class="st3" d="M159.3,162.7l-9.2-16c-0.5-0.8-1.5-1.1-2.3-0.6c-0.8,0.5-1.1,1.5-0.6,2.3l9.2,16L159.3,162.7z"/>
<path class="st3" d="M158.9,181.9l9.2-16c0.5-0.8,0.2-1.8-0.6-2.3c-0.8-0.5-1.8-0.2-2.3,0.6l-9.2,16L158.9,181.9z"/>
<path class="st4" d="M111.4,331.3c1.4-1.3,2-2.8,1.5-3.9c-0.7-1.3-3-1.5-5.4-0.6c0.1-0.3,0.3-0.6,0.3-1c1.3-4.1,0.5-8.1-1.6-8.8
	c-2.1-0.7-4.9,2-6.2,5.9c-1.1-4.6-3.9-7.8-6.4-7.2c-2.3,0.5-3.4,4.3-2.7,8.5c-3.4-1.5-6.6-1.4-7.6,0.4c-1.1,1.9,0.6,4.9,3.8,7.1
	c-1.5,0.5-2.5,1.4-2.7,2.6c-0.2,1.4,1,2.8,3,3.7c-0.1,0.3-0.1,0.6-0.1,0.8c0.2,0.9,1.3,1.4,2.7,1.4h0.2c0,0,0,0,0,0h17.9v0
	c0.3,0,0.6-0.2,0.7-0.4c0.1-0.2,0-0.3-0.1-0.5c0.9-0.1,1.7-0.5,1.9-1.1c0.2-0.5,0-1.1-0.3-1.6c2.5-0.2,4.3-1.2,4.4-2.6
	C114.7,332.9,113.3,331.8,111.4,331.3z"/>
<path class="st5" d="M149.1,323.6c2.6-2.4,3.7-5.2,2.7-7.1c-1.3-2.4-5.4-2.8-9.9-1.1c0.2-0.6,0.4-1.2,0.6-1.8c2.4-7.6,1-14.9-3-16.1
	c-3.9-1.2-9,3.6-11.5,10.9c-2-8.4-7.3-14.3-11.7-13.2c-4.2,1-6.3,7.8-4.9,15.6c-6.2-2.7-12.2-2.5-14,0.8c-2,3.4,1.1,9,6.9,13
	c-2.8,0.9-4.7,2.6-4.9,4.8c-0.3,2.6,1.9,5.2,5.5,6.8c-0.2,0.5-0.3,1-0.1,1.5c0.4,1.6,2.4,2.6,5,2.7h0.4h0h33v0
	c0.6-0.1,1.1-0.4,1.3-0.8c0.1-0.3,0.1-0.6-0.1-1c1.7-0.2,3-0.8,3.5-2c0.3-0.9,0.1-1.9-0.6-3c4.5-0.3,8-2.3,8.1-4.8
	C155.3,326.6,152.8,324.6,149.1,323.6z"/>
<path class="st6" d="M373.7,325.4c-2.3-2.2-3.3-4.6-2.4-6.3c1.1-2.2,4.8-2.5,8.8-1c-0.2-0.5-0.4-1.1-0.6-1.6
	c-2.1-6.8-0.9-13.2,2.7-14.3c3.5-1.1,8,3.2,10.2,9.7c1.8-7.5,6.5-12.7,10.5-11.8c3.8,0.9,5.6,7,4.4,13.9c5.5-2.4,10.8-2.2,12.5,0.7
	c1.8,3-1,8-6.2,11.6c2.5,0.8,4.1,2.3,4.4,4.3c0.3,2.3-1.7,4.6-4.9,6.1c0.2,0.5,0.2,0.9,0.1,1.4c-0.3,1.4-2.1,2.3-4.4,2.4h-0.3h0
	h-29.4v0c-0.6-0.1-1-0.3-1.1-0.7c-0.1-0.3,0-0.5,0.1-0.8c-1.6-0.2-2.7-0.8-3.1-1.8c-0.3-0.8-0.1-1.7,0.5-2.6c-4-0.3-7.1-2-7.2-4.3
	C368.2,328,370.4,326.2,373.7,325.4z"/>
<path class="st4" d="M407.6,334.3c-0.9-0.9-1.3-1.9-1-2.6c0.5-0.9,2-1,3.6-0.4c-0.1-0.2-0.2-0.4-0.2-0.6c-0.9-2.7-0.4-5.3,1.1-5.8
	c1.4-0.5,3.2,1.3,4.1,3.9c0.7-3,2.6-5.1,4.2-4.8c1.5,0.4,2.3,2.8,1.8,5.6c2.2-1,4.4-0.9,5.1,0.3c0.7,1.2-0.4,3.2-2.5,4.7
	c1,0.3,1.7,0.9,1.8,1.7c0.1,0.9-0.7,1.9-2,2.4c0.1,0.2,0.1,0.4,0,0.5c-0.1,0.6-0.8,0.9-1.8,1h-0.1h-11.9c-0.2,0-0.4-0.1-0.5-0.3
	c0-0.1,0-0.2,0-0.3c-0.6-0.1-1.1-0.3-1.3-0.7c-0.1-0.3,0-0.7,0.2-1.1c-1.6-0.1-2.9-0.8-2.9-1.7C405.4,335.4,406.3,334.6,407.6,334.3
	z"/>
<path class="st7" d="M263,326.2c-2.1-2-3.1-4.3-2.3-6c1-2,4.6-2.3,8.3-0.9c-0.2-0.5-0.4-1-0.5-1.5c-2-6.4-0.9-12.5,2.6-13.5
	c3.3-1.1,7.6,3,9.6,9.2c1.7-7,6.1-12,9.9-11.1c3.5,0.8,5.3,6.6,4.1,13.1c5.2-2.3,10.2-2.1,11.8,0.7c1.6,2.9-0.9,7.5-5.8,10.9
	c2.3,0.8,3.9,2.2,4.1,4c0.3,2.2-1.6,4.4-4.6,5.7c0.2,0.4,0.2,0.8,0.1,1.3c-0.3,1.3-2,2.2-4.2,2.2h-0.3h0h-27.7v0
	c-0.5-0.1-0.9-0.3-1.1-0.7c-0.1-0.3,0-0.5,0.1-0.8c-1.5-0.1-2.6-0.7-2.9-1.7c-0.3-0.8-0.1-1.6,0.5-2.5c-3.8-0.3-6.7-1.9-6.8-4
	C257.8,328.7,259.9,327,263,326.2z"/>
<path class="st4" d="M294.1,332.3c-1.2-1.1-1.8-2.5-1.3-3.4c0.6-1.1,2.6-1.3,4.7-0.5c-0.1-0.3-0.2-0.6-0.3-0.9
	c-1.1-3.6-0.5-7,1.4-7.7c1.9-0.6,4.3,1.7,5.5,5.2c1-4,3.4-6.8,5.6-6.3c2,0.5,3,3.7,2.3,7.4c2.9-1.3,5.8-1.2,6.7,0.4
	c0.9,1.6-0.5,4.3-3.3,6.2c1.3,0.4,2.2,1.3,2.3,2.3c0.2,1.2-0.9,2.5-2.6,3.2c0.1,0.3,0.1,0.5,0.1,0.7c-0.2,0.8-1.1,1.2-2.4,1.3h-0.2
	c0,0,0,0,0,0H297v0c-0.3,0-0.5-0.2-0.6-0.4c0-0.1,0-0.3,0-0.5c-0.8-0.1-1.4-0.4-1.6-1c-0.2-0.4,0-0.9,0.3-1.4
	c-2.1-0.1-3.8-1.1-3.9-2.3C291.2,333.7,292.4,332.8,294.1,332.3z"/>
<path class="st7" d="M309.9,142.7c-0.2,0-0.4,0-0.6,0.1c0-0.1,0-0.2,0-0.3c0-2.2-1.8-4-4-4c-1.8,0-3.4,1.2-3.8,2.9
	c-0.2-0.1-0.5-0.1-0.7-0.1c-1.4,0-2.6,1.1-2.6,2.6c0,1.4,1.1,2.6,2.6,2.6c0,0,0.1,0,0.1,0h8.9c1,0,1.9-0.8,1.9-1.9
	C311.8,143.5,310.9,142.7,309.9,142.7z"/>
<path class="st8" d="M240.8,99.3c-1.1,0-2.1,0.3-2.9,0.8c-0.9-3.8-4.3-6.7-8.4-6.7c-0.4,0-0.7,0-1.1,0.1c-1.9-4.3-6.2-7.3-11.2-7.3
	c-6.8,0-12.2,5.5-12.2,12.3c0,0.1,0,0.1,0,0.2c-0.8-0.4-1.7-0.6-2.7-0.6c-3.5,0-6.3,2.8-6.3,6.3c0,3.5,2.8,6.3,6.3,6.3h38.5
	c3.1,0,5.7-2.6,5.7-5.7C246.5,101.9,244,99.3,240.8,99.3z"/>
<path class="st7" d="M182.2,235.5c0.7,0,1.4,0.2,1.9,0.5c0.6-2.5,2.8-4.4,5.5-4.4c0.2,0,0.5,0,0.7,0c1.3-2.8,4.1-4.8,7.3-4.8
	c4.4,0,8,3.6,8,8.1c0,0,0,0.1,0,0.1c0.5-0.3,1.1-0.4,1.8-0.4c2.3,0,4.1,1.9,4.1,4.2c0,2.3-1.8,4.2-4.1,4.2h-25.3
	c-2.1,0-3.7-1.7-3.7-3.8C178.5,237.2,180.1,235.5,182.2,235.5z"/>
<path class="st9" d="M433.8,317.8l-0.1,0.2c0,0-0.2,0.6-0.5,1.4c-0.4,0.7-1,1.6-2,2.2c-1,0.6-2.1,0.7-2.9,0.7
	c-0.8,0-1.4-0.2-1.4-0.2l-0.2-0.1l0.1-0.2c0,0,0.2-0.6,0.5-1.3c0.4-0.7,1-1.6,2-2.2c1-0.6,2.1-0.7,2.9-0.7c0.8,0,1.4,0.2,1.4,0.2
	L433.8,317.8z M427.3,321.6c0.6,0.1,2.3,0.3,3.7-0.5c1.4-0.8,2-2.4,2.2-3c-0.6-0.1-2.3-0.3-3.7,0.5
	C428.1,319.4,427.5,321,427.3,321.6z"/>
<path class="st7" d="M430.5,323.3c-2.2,0.8-4.6-0.3-4.6-0.3s1.1-2.4,3.3-3.2c2.2-0.8,4.6,0.3,4.6,0.3S432.7,322.4,430.5,323.3z"/>
<path class="st9" d="M425.9,291.6v0.3c0,0,0,0.8-0.3,1.8c-0.2,0.9-0.7,2.2-1.7,3.2c-1,1-2.3,1.5-3.2,1.7c-1,0.2-1.8,0.2-1.8,0.2
	h-0.3v-0.3c0,0,0-0.8,0.3-1.8c0.2-0.9,0.7-2.2,1.7-3.2c1-1,2.3-1.5,3.2-1.7c1-0.2,1.8-0.2,1.8-0.2H425.9z M419.2,298.2
	c0.8,0,2.9-0.3,4.3-1.7c1.4-1.4,1.7-3.5,1.8-4.3c-0.8,0-2.9,0.3-4.3,1.7C419.6,295.3,419.3,297.5,419.2,298.2z"/>
<path class="st7" d="M423.6,299.2c-2.4,1.6-5.6,1.1-5.6,1.1s0.6-3.2,3-4.9c2.4-1.6,5.6-1.1,5.6-1.1S426,297.6,423.6,299.2z"/>
<path class="st9" d="M124.9,283.9l0.2,0.2c0,0,0.5,0.4,1,1.1c0.5,0.6,1,1.6,1.1,2.8c0.1,1.2-0.3,2.3-0.7,3c-0.4,0.8-0.8,1.2-0.8,1.3
	l-0.2,0.2l-0.2-0.2c0,0-0.5-0.4-1-1.1c-0.5-0.6-1-1.6-1.1-2.8c-0.1-1.2,0.3-2.3,0.7-3c0.4-0.8,0.8-1.2,0.8-1.3L124.9,283.9z
	 M125.5,291.8c0.4-0.5,1.3-2,1.2-3.7c-0.1-1.6-1.3-3-1.8-3.4c-0.4,0.5-1.3,2-1.2,3.7C123.9,290,125.1,291.3,125.5,291.8z"/>
<path class="st7" d="M128.5,289.5c-0.2,2.4-2.3,4.2-2.3,4.2s-1.8-2.1-1.5-4.5c0.2-2.4,2.3-4.2,2.3-4.2S128.8,287.1,128.5,289.5z"/>
<path class="st9" d="M78.8,311.7l0.2,0c0,0,0.5,0,1.3,0.1c0.7,0.1,1.6,0.4,2.3,1c0.8,0.6,1.1,1.6,1.3,2.2c0.2,0.7,0.3,1.2,0.3,1.2
	l0,0.2l-0.2,0c0,0-0.5,0-1.3-0.1c-0.7-0.1-1.6-0.4-2.3-1c-0.8-0.6-1.1-1.6-1.3-2.2c-0.2-0.7-0.3-1.2-0.3-1.2L78.8,311.7z M83.7,316
	c-0.1-0.5-0.4-2-1.4-2.9c-1-0.9-2.5-1-3.1-1c0.1,0.5,0.4,2,1.4,2.9C81.7,315.9,83.2,316,83.7,316z"/>
<path class="st7" d="M84.2,312.9c1.3,1.6,1,3.9,1,3.9s-2.3-0.3-3.6-1.8c-1.3-1.6-1-3.9-1-3.9S82.9,311.3,84.2,312.9z"/>
<path class="st9" d="M364.7,305.5h0.2c0,0,0.6,0,1.4,0.2c0.7,0.2,1.8,0.5,2.6,1.3c0.8,0.8,1.2,1.8,1.4,2.5c0.2,0.8,0.2,1.4,0.2,1.4
	v0.2h-0.2c0,0-0.6,0-1.4-0.2c-0.7-0.2-1.8-0.5-2.6-1.3c-0.8-0.8-1.2-1.8-1.4-2.5c-0.2-0.8-0.2-1.4-0.2-1.4V305.5z M370.1,310.5
	c-0.1-0.6-0.3-2.3-1.5-3.3c-1.1-1.1-2.8-1.3-3.4-1.3c0.1,0.6,0.3,2.3,1.5,3.3C367.8,310.3,369.4,310.5,370.1,310.5z"/>
<path class="st7" d="M370.7,307c1.3,1.8,1,4.4,1,4.4s-2.6-0.4-3.9-2.2c-1.3-1.8-1-4.4-1-4.4S369.4,305.2,370.7,307z"/>
<path class="st10" d="M301.1,326.2h-106l1.9-7l3.8-13.7l2.3-8.3l3.4-12.2l6.5-23.5l3.4-12.2l23.6-85.9h16.4l8.7,31.5l15,54.4
	l3.4,12.2l6.5,23.5l3.4,12.2l6,22L301.1,326.2z"/>
<path class="st11" d="M301.1,326.2h-106l1.9-7l3.8-13.7c73.9-4.4,64.1-110.7,64.1-110.7l34.3,124.3L301.1,326.2z"/>
<path class="st10" d="M322.8,326.2H173.4v14.3h149.4V326.2z"/>
<path class="st12" d="M301.1,326.2h-106l1.9-7h102.2L301.1,326.2z"/>
<path class="st13" d="M283.3,261.5c0,0-2.2,47-56.1,57.8l71.9,0L283.3,261.5z"/>
<path class="st14" d="M283.3,261.5h-70.4l3.4-12.2h63.6L283.3,261.5z"/>
<path class="st14" d="M293.1,297.2h-90.1l3.4-12.2h83.3L293.1,297.2z"/>
<path class="st15" d="M288.2,326.2c0,0-19.8,15-93.2,14.3h127.7v-14.3H288.2z"/>
<path class="st12" d="M344.7,345.2H149.4c-1.3,0-2.4-1.1-2.4-2.4v-0.1c0-1.3,1.1-2.4,2.4-2.4h195.4c1.3,0,2.4,1.1,2.4,2.4v0.1
	C347.2,344.1,346.1,345.2,344.7,345.2z"/>
<path class="st12" d="M153.1,345.2h-31.7c-1.3,0-2.4-1.1-2.4-2.4v-0.1c0-1.3,1.1-2.4,2.4-2.4h31.7c1.3,0,2.4,1.1,2.4,2.4v0.1
	C155.5,344.1,154.4,345.2,153.1,345.2z"/>
<path class="st12" d="M106.9,345.2H73.7c-1.3,0-2.4-1.1-2.4-2.4v-0.1c0-1.3,1.1-2.4,2.4-2.4h33.2c1.3,0,2.4,1.1,2.4,2.4v0.1
	C109.3,344.1,108.2,345.2,106.9,345.2z"/>
<path class="st12" d="M386.9,345.2h-27.3c-1.3,0-2.4-1.1-2.4-2.4v-0.1c0-1.3,1.1-2.4,2.4-2.4h27.3c1.3,0,2.4,1.1,2.4,2.4v0.1
	C389.4,344.1,388.3,345.2,386.9,345.2z"/>
<path class="st12" d="M422.6,345.2h-20.8c-1.3,0-2.4-1.1-2.4-2.4v-0.1c0-1.3,1.1-2.4,2.4-2.4h20.8c1.3,0,2.4,1.1,2.4,2.4v0.1
	C425,344.1,423.9,345.2,422.6,345.2z"/>
</svg>
