<?xml version="1.0" encoding="utf-8"?>
<!-- Generator: Adobe Illustrator 26.0.0, SVG Export Plug-In . SVG Version: 6.00 Build 0)  -->
<svg version="1.1" xmlns="http://www.w3.org/2000/svg" xmlns:xlink="http://www.w3.org/1999/xlink" x="0px" y="0px"
	 viewBox="0 0 143 24" style="enable-background:new 0 0 143 24;" xml:space="preserve">
<style type="text/css">
	.st0{fill-rule:evenodd;clip-rule:evenodd;fill:#4B5563;}
	.st1{fill:none;}
	.st2{fill:#4B5563;}
</style>
<g id="IDENA">
	<g id="IDENA_00000049915304852175594920000009455902603933098164_">
		<g id="Idena-name" transform="translate(0.000000, 233.904738)">
			<polygon id="Fill-1" class="st0" points="31.1,-211.3 34.9,-211.3 34.9,-232.4 31.1,-232.4 			"/>
			<path id="Fill-2" class="st0" d="M126.5-232.4l-9.2,21.1h4.2l1.5-3.3h14.4l1.5,3.3h4.1l-9-21.1H126.5z M128.9-228.9h2.4l4.4,10.8
				h-11.4L128.9-228.9z"/>
			<polygon id="Fill-3" class="st0" points="108.6,-232.4 108.6,-216.7 94.6,-232.4 90.7,-232.4 90.7,-211.3 94.5,-211.3 
				94.5,-227.1 108.6,-211.3 112.5,-211.3 112.5,-232.4 			"/>
			<polygon id="Fill-4" class="st0" points="66.5,-232.4 66.5,-211.3 85.9,-211.3 85.9,-214.8 70.4,-214.8 70.4,-220.3 83.9,-220.3 
				83.9,-223.8 70.4,-223.8 70.4,-228.9 85.4,-228.9 85.4,-232.4 			"/>
			<path id="Fill-5" class="st0" d="M43.6-214.8h6.7c1.1,0,2.1-0.2,3.1-0.5c0.9-0.3,1.7-0.8,2.4-1.4c0.7-0.6,1.2-1.4,1.5-2.2
				c0.4-0.9,0.6-1.8,0.6-2.9c0-1-0.2-2-0.6-2.9c-0.4-0.9-0.9-1.6-1.5-2.2c-0.7-0.6-1.5-1.1-2.4-1.4c-0.9-0.3-2-0.5-3.1-0.5h-6.7
				V-214.8z M50.4-232.4c1.5,0,2.9,0.2,4.3,0.7c1.4,0.5,2.6,1.2,3.6,2.1c1.1,0.9,1.9,2,2.5,3.3s0.9,2.7,0.9,4.4c0,1.6-0.3,3.1-1,4.4
				c-0.6,1.3-1.5,2.4-2.5,3.3c-1,0.9-2.3,1.6-3.6,2.1c-1.4,0.5-2.8,0.7-4.3,0.7H39.7v-21.1h10.7V-232.4z"/>
		</g>
	</g>
</g>
<g id="FAV">
	<g>
		<path class="st1" d="M13,16.2l-0.2-0.1L13,16h-0.1l-0.2-0.1c-0.1,0-0.2,0-0.3,0.1c-0.2,0-0.3,0-0.4,0c-0.1,0-0.2,0-0.4-0.1
			c-0.1-0.1-0.2-0.1-0.3-0.1l-0.2,0.1L11,16l-0.2,0.1l-0.2,0.1l-0.2,0.1h-0.1l-0.1,0.1h-0.1H10c0.4,0.3,0.9,0.7,1.8,0.7
			c0.8,0,1.3-0.3,1.7-0.6h0.1c-0.1-0.1-0.3-0.1-0.4-0.2L13,16.2z M12.7,16.9h-1.4c-0.2,0-0.3-0.1-0.3-0.3c0-0.2,0.1-0.3,0.3-0.3h1.4
			c0.2,0,0.3,0.1,0.3,0.3C13,16.8,12.9,16.9,12.7,16.9z"/>
		<path class="st1" d="M14.4,9.8h2c0.6,0,1.1-0.4,1.2-1.1h-2C15,8.7,14.5,9.2,14.4,9.8z"/>
		<path class="st1" d="M5,21c0.1,0.1,0.3,0.2,0.4,0.3l0.1,0.1v-4.8c-0.2-0.3-0.3-0.7-0.5-1V21z"/>
		<path class="st1" d="M7.4,22.4c0.1,0.1,0.3,0.1,0.4,0.2l0.1,0.1v-3L7.4,19V22.4z"/>
		<path class="st1" d="M6.2,21.8C6.3,21.9,6.5,22,6.6,22l0.1,0.1v-3.8c-0.2-0.2-0.3-0.4-0.5-0.6V21.8z"/>
		<path class="st1" d="M8.3,8.7h-2c0.1,0.6,0.5,1.1,1.1,1.1h2C9.5,9.2,9,8.8,8.3,8.7z"/>
		<path class="st1" d="M18.4,21.3c0.1-0.1,0.3-0.2,0.4-0.3l0.1-0.1v-5.4c-0.2,0.4-0.3,0.7-0.5,1.1V21.3z"/>
		<path class="st1" d="M16,22.6c0.1-0.1,0.3-0.1,0.4-0.2l0.1-0.1v-3.2L16,19.6V22.6z"/>
		<path class="st1" d="M12,22c-1,0-2.1-0.4-2.8-1.2l-0.5-0.5v2.6c1.1,0.3,2.2,0.5,3.3,0.5c1.1,0,2.2-0.2,3.2-0.5h0.1v-2.6l-0.5,0.6
			C14.1,21.6,13,22,12,22z"/>
		<path class="st1" d="M5.1,2.9L5,3v1c0,0.1,0,0.2,0,0.3c1.9-1.7,4.4-2.7,7-2.7c2.6,0,5,0.9,7,2.7c0-0.1,0-0.2,0-0.2V4V3
			c-2-1.5-4.4-2.4-7-2.4C9.4,0.6,7,1.5,5.1,2.9z"/>
		<path class="st1" d="M21.3,11c-0.3,0.4-0.3,1,0,1.4l1.8,2.1c0.1-0.4,0.2-0.9,0.2-1.3V13L21.3,11L21.3,11z"/>
		<path class="st1" d="M23.3,10.4v-0.1l-1.9-2.2l-0.1,0.2c-0.3,0.4-0.3,1,0,1.4l2.1,2.4V12C23.4,11.4,23.4,10.9,23.3,10.4z"/>
		<path class="st1" d="M21.3,13.8c-0.3,0.4-0.3,1,0,1.4l1.1,1.3c0.2-0.4,0.3-0.7,0.4-1.1v-0.1l-1.4-1.7L21.3,13.8z"/>
		<path class="st1" d="M22.8,8.9c-0.2-1.2-0.7-2.3-1.5-3.4c-0.4,0.4-0.4,1.1-0.1,1.5L22.8,8.9z"/>
		<path class="st1" d="M17.2,18.3v3.8c0.1-0.1,0.3-0.2,0.4-0.2l0.1-0.1v-4.1c-0.1,0.2-0.2,0.3-0.4,0.5L17.2,18.3z"/>
		<path class="st1" d="M17.1,14c-0.1,0-0.1,0.1-0.2,0.1s-0.2,0-0.3-0.1c-0.1-0.1-0.1-0.3,0.1-0.4c1.3-1,2.1-2.3,2.1-3.7V9.8V6
			c-0.6,0.9-1.6,1.4-2.7,1.4H16h-0.5c-1.4,0-2.6,1.1-2.6,2.6v3.1c0,0.2-0.1,0.3-0.3,0.3s-0.3-0.1-0.3-0.3V10c0-1.8,1.4-3.2,3.2-3.2
			h0.1h0.5c1.2,0,2.2-0.8,2.6-1.8c-0.9-0.8-1.9-1.5-3-2c-1,1.1-2.3,1.7-3.7,1.7c-1.4,0-2.7-0.6-3.8-1.7c-1.1,0.5-2.1,1.1-3,2
			c0.4,1,1.4,1.7,2.5,1.8h0.1h0.5c1.8,0,3.2,1.4,3.2,3.2v0.1v3.1c0,0.2-0.1,0.3-0.3,0.3s-0.3-0.1-0.3-0.3V10c0-1.4-1.1-2.6-2.6-2.6
			H7.8C6.7,7.4,5.7,6.8,5,6v3.8c0,1.4,0.8,2.8,2.1,3.8c0.1,0.1,0.2,0.3,0.1,0.4c-0.1,0.1-0.2,0.1-0.3,0.1s-0.1,0-0.2-0.1
			C6,13.5,5.4,12.9,5,12.2c0,2.1,0.8,4,2.2,5.6l0.1,0.1l2.3,2.5c0.6,0.6,1.5,1,2.4,1c0.9,0,1.7-0.4,2.3-1l2.3-2.5
			c1.4-1.5,2.3-3.5,2.3-5.7v-0.1C18.5,12.8,17.9,13.5,17.1,14z M5.7,8.6V8.4c0-0.2,0.1-0.3,0.3-0.3h2.3c1,0,1.8,0.8,1.8,1.8v0.2
			c0,0.2-0.1,0.3-0.3,0.3H7.5C6.5,10.4,5.7,9.6,5.7,8.6z M12.9,19.2h-2.1c-0.2,0-0.3-0.1-0.3-0.3c0-0.2,0.1-0.3,0.3-0.3h2.1
			c0.2,0,0.3,0.1,0.3,0.3C13.2,19.1,13.1,19.2,12.9,19.2z M14.7,16.6v0.1v0.1v0.1V17h-0.2l-0.1,0.1h-0.1l-0.1,0.1l-0.1,0.1H14h-0.1
			c-0.5,0.3-1.1,0.6-2,0.6s-1.6-0.3-2.1-0.7H9.7l-0.1-0.1L9.5,17H9.4c0,0,0,0-0.1-0.1v-0.1v-0.1v-0.1c-0.1-0.1,0-0.3,0.1-0.4
			c0,0,0.1-0.1,0.2-0.1h0.1L9.8,16c0,0,0,0,0.1,0l0.2-0.1l0.2-0.1l0.2-0.1l0.2-0.1l0.3-0.1v-0.2c0.3-0.1,0.6-0.1,0.9,0.1
			c0,0,0,0,0.1,0c0.3-0.2,0.6-0.2,0.8-0.1h0.1l0.3,0.1l0.1,0.1l0.2,0.1l0.2,0.1l0.1,0.1H14l0.1,0.1l0.1,0.1l0.1,0.1h0.1
			c0.1,0,0.1,0.1,0.2,0.1C14.7,16.3,14.8,16.5,14.7,16.6z M14.1,10.4c-0.2,0-0.3-0.1-0.3-0.3V9.9c0-1,0.8-1.8,1.8-1.8h2.3
			c0.2,0,0.3,0.1,0.3,0.3v0.2c0,1-0.8,1.8-1.8,1.8H14.1z"/>
		<path class="st1" d="M21.5,18.2c0.2-0.3,0.4-0.6,0.5-0.9l0.1-0.1l-0.7-0.8C21.1,17,21.1,17.7,21.5,18.2z"/>
		<path class="st1" d="M15.1,2.8c-1-0.4-2-0.5-3.1-0.5c-1.1,0-2.1,0.2-3.1,0.5c0.9,0.8,2,1.3,3.1,1.3C13.1,4.1,14.2,3.6,15.1,2.8z"
			/>
		<path class="st1" d="M21,18.6c-0.6-0.7-0.6-1.9,0-2.7l-0.2-0.2c-0.6-0.7-0.6-1.7,0-2.3l0.2-0.3l-0.2-0.2c-0.5-0.6-0.6-1.6,0-2.2
			l0.2-0.3l-0.2-0.2c-0.5-0.6-0.6-1.6,0-2.2L21,7.6l-0.2-0.2c-0.5-0.6-0.6-1.6,0-2.2L20.9,5c-0.3-0.5-0.8-1-1.2-1.4l-0.1-0.1v16.9
			c0.6-0.5,1.1-1.1,1.5-1.7C21.1,18.7,21,18.7,21,18.6z"/>
		<polygon class="st2" points="16.5,19 16.5,19.1 16.6,19 		"/>
		<path class="st2" d="M18.2,8.6V8.4c0-0.2-0.1-0.3-0.3-0.3h-2.3c-1,0-1.8,0.8-1.8,1.8v0.2c0,0.2,0.1,0.3,0.3,0.3h2.3
			C17.4,10.4,18.2,9.6,18.2,8.6z M16.4,9.8h-2c0.1-0.6,0.6-1.1,1.2-1.1h2C17.5,9.4,17,9.8,16.4,9.8z"/>
		<path class="st2" d="M5,12.2C5,12.2,5,12.2,5,12.2c0,0,0-0.1,0-0.1V12.2z"/>
		<path class="st2" d="M17.7,17.6v0.1c0,0,0.1-0.1,0.1-0.1H17.7z"/>
		<path class="st2" d="M10.1,10.1V9.9c0-1-0.8-1.8-1.8-1.8H6c-0.2,0-0.3,0.1-0.3,0.3v0.2c0,1,0.8,1.8,1.8,1.8h2.3
			C10,10.4,10.1,10.3,10.1,10.1z M7.4,9.8c-0.6,0-1-0.5-1.1-1.1h2C9,8.8,9.5,9.2,9.4,9.8H7.4z"/>
		<path class="st2" d="M4.3,20.4c-0.5-0.5-1-1-1.4-1.6C3,18.8,3,18.7,3,18.7c0.6-0.8,0.6-2,0-2.8l0.2-0.4c0.6-0.6,0.5-1.6,0-2.2
			L3,13.1l0.2-0.3c0.6-0.6,0.5-1.6,0-2.2L3,10.4L3.2,10c0.6-0.6,0.5-1.6,0-2.2L3,7.6l0.1-0.2c0.6-0.6,0.5-1.6,0-2.2L3,5l0.2-0.2
			C3.5,4.3,4,3.9,4.4,3.5V2.7C1.7,4.9,0,8.3,0,12s1.7,7.1,4.4,9.3L4.3,20.4L4.3,20.4z M1,8.8c0.4-1.2,0.9-2.3,1.6-3.3
			C3,6,3,6.6,2.6,7L1,8.9V8.8z M0.6,12.1L0.6,12.1c0-0.7,0-1.3,0.1-1.9l1.8-2.1l0.2,0.3c0.3,0.4,0.3,1,0,1.4l-2.1,2.4V12.1z
			 M0.6,13.1l1.9-2.2L2.6,11c0.3,0.4,0.3,1,0,1.4l-1.8,2.1v-0.1C0.7,14,0.6,13.6,0.6,13.1z M1.5,16.4c-0.2-0.4-0.3-0.7-0.4-1.1
			l1.4-1.7l0.2,0.2c0.3,0.4,0.3,1,0,1.4l-1.1,1.3L1.5,16.4z M2.4,18.2c-0.2-0.3-0.4-0.6-0.6-1l0.7-0.8C2.8,16.9,2.8,17.7,2.4,18.2z"
			/>
		<path class="st1" d="M17.2,18.3v3.8c0.1-0.1,0.3-0.2,0.4-0.2l0.1-0.1v-4.1c-0.1,0.2-0.2,0.3-0.4,0.5L17.2,18.3z"/>
		<path class="st1" d="M5,12.2C5,12.2,5,12.2,5,12.2c0,0,0-0.1,0-0.1V12.2z"/>
		<path class="st1" d="M17.7,17.7c0,0,0.1-0.1,0.1-0.1h-0.1V17.7z"/>
		<path class="st1" d="M17.1,14c-0.1,0-0.1,0.1-0.2,0.1s-0.2,0-0.3-0.1c-0.1-0.1-0.1-0.3,0.1-0.4c1.3-1,2.1-2.3,2.1-3.7V9.8V6
			c-0.6,0.9-1.6,1.4-2.7,1.4H16h-0.5c-1.4,0-2.6,1.1-2.6,2.6v3.1c0,0.2-0.1,0.3-0.3,0.3s-0.3-0.1-0.3-0.3V10c0-1.8,1.4-3.2,3.2-3.2
			h0.1h0.5c1.2,0,2.2-0.8,2.6-1.8c-0.9-0.8-1.9-1.5-3-2c-1,1.1-2.3,1.7-3.7,1.7c-1.4,0-2.7-0.6-3.8-1.7c-1.1,0.5-2.1,1.1-3,2
			c0.4,1,1.4,1.7,2.5,1.8h0.1h0.5c1.8,0,3.2,1.4,3.2,3.2v0.1v3.1c0,0.2-0.1,0.3-0.3,0.3s-0.3-0.1-0.3-0.3V10c0-1.4-1.1-2.6-2.6-2.6
			H7.8C6.7,7.4,5.7,6.8,5,6v3.8c0,1.4,0.8,2.8,2.1,3.8c0.1,0.1,0.2,0.3,0.1,0.4c-0.1,0.1-0.2,0.1-0.3,0.1s-0.1,0-0.2-0.1
			C6,13.5,5.4,12.9,5,12.2c0,2.1,0.8,4,2.2,5.6l0.1,0.1l2.3,2.5c0.6,0.6,1.5,1,2.4,1c0.9,0,1.7-0.4,2.3-1l2.3-2.5
			c1.4-1.5,2.3-3.5,2.3-5.7v-0.1C18.5,12.8,17.9,13.5,17.1,14z"/>
		<polygon class="st1" points="16.5,19.1 16.6,19 16.5,19 		"/>
		<path class="st1" d="M18.4,21.3c0.1-0.1,0.3-0.2,0.4-0.3l0.1-0.1v-5.4c-0.2,0.4-0.3,0.7-0.5,1.1V21.3z"/>
		<path class="st1" d="M7.4,22.4c0.1,0.1,0.3,0.1,0.4,0.2l0.1,0.1v-3L7.4,19V22.4z"/>
		<path class="st1" d="M16,22.6c0.1-0.1,0.3-0.1,0.4-0.2l0.1-0.1v-3.2L16,19.6V22.6z"/>
		<path class="st1" d="M5,21c0.1,0.1,0.3,0.2,0.4,0.3l0.1,0.1v-4.8c-0.2-0.3-0.3-0.7-0.5-1V21z"/>
		<path class="st1" d="M12,22c-1,0-2.1-0.4-2.8-1.2l-0.5-0.5v2.6c1.1,0.3,2.2,0.5,3.3,0.5c1.1,0,2.2-0.2,3.2-0.5h0.1v-2.6l-0.5,0.6
			C14.1,21.6,13,22,12,22z"/>
		<path class="st1" d="M6.2,21.8C6.3,21.9,6.5,22,6.6,22l0.1,0.1v-3.8c-0.2-0.2-0.3-0.4-0.5-0.6V21.8z"/>
		<path class="st1" d="M15.1,2.8c-1-0.4-2-0.5-3.1-0.5c-1.1,0-2.1,0.2-3.1,0.5c0.9,0.8,2,1.3,3.1,1.3C13.1,4.1,14.2,3.6,15.1,2.8z"
			/>
		<path class="st1" d="M5.1,2.9L5,3v1c0,0.1,0,0.2,0,0.3c1.9-1.7,4.4-2.7,7-2.7c2.6,0,5,0.9,7,2.7c0-0.1,0-0.2,0-0.2V4V3
			c-2-1.5-4.4-2.4-7-2.4C9.4,0.6,7,1.5,5.1,2.9z"/>
		<path class="st2" d="M19.6,3.5V2.7C17.5,1,14.9,0,12,0S6.5,1,4.4,2.7v0.8v17v0.8C6.5,23,9.1,24,12,24s5.5-1,7.6-2.7v-0.9V3.5z
			 M5.5,21.4l-0.1-0.1C5.3,21.2,5.1,21.1,5,21v-5.4v-0.1v0.1c0.2,0.3,0.3,0.7,0.5,1V21.4z M6.7,22.1L6.7,22.1
			c-0.2-0.1-0.4-0.2-0.5-0.3v-4.1v-0.1v0.1c0.2,0.2,0.3,0.4,0.5,0.6V22.1z M7.9,22.7l-0.1-0.1c-0.1-0.1-0.3-0.1-0.4-0.2V19l0.5,0.7
			V22.7z M15.3,22.9h-0.1c-1,0.3-2.1,0.5-3.2,0.5c-1.1,0-2.2-0.2-3.3-0.5v-2.6l0.5,0.5C9.9,21.6,11,22,12,22s2.1-0.4,2.8-1.1
			l0.5-0.6V22.9z M16.5,19.1v3.2l-0.1,0.1c-0.1,0.1-0.3,0.1-0.4,0.2v-3L16.5,19.1V19h0.1L16.5,19.1z M17.7,17.7v4.1l-0.1,0.1
			c-0.1,0-0.3,0.1-0.4,0.2v-3.8l0.1-0.1C17.5,18,17.6,17.9,17.7,17.7v-0.1h0.1C17.8,17.6,17.7,17.7,17.7,17.7z M18.9,20.9L18.9,20.9
			c-0.2,0.2-0.4,0.3-0.5,0.4v-4.7c0.2-0.4,0.3-0.7,0.5-1.1V20.9z M18.9,12.2c0,2.2-0.9,4.2-2.3,5.7l-2.3,2.5c-0.6,0.6-1.4,1-2.3,1
			c-0.9,0-1.8-0.4-2.4-1l-2.3-2.5l-0.1-0.1C5.8,16.2,5,14.3,5,12.2c0,0,0,0,0,0v-0.1c0,0,0,0.1,0,0.1c0.4,0.7,1,1.3,1.7,1.8
			c0.1,0.1,0.1,0.1,0.2,0.1s0.2,0,0.3-0.1c0.1-0.1,0-0.3-0.1-0.4C5.8,12.6,5,11.2,5,9.8V6c0.7,0.8,1.7,1.4,2.8,1.4h0.5
			c1.5,0,2.6,1.2,2.6,2.6v3.2c0,0.2,0.1,0.3,0.3,0.3s0.3-0.1,0.3-0.3v-3.1V10c0-1.8-1.4-3.2-3.2-3.2H7.8H7.7C6.6,6.7,5.6,6,5.2,5
			c0.9-0.9,1.9-1.5,3-2c1.1,1.1,2.4,1.7,3.8,1.7c1.4,0,2.7-0.6,3.7-1.7c1.1,0.5,2.1,1.2,3,2c-0.4,1-1.4,1.8-2.6,1.8h-0.5h-0.1
			c-1.8,0-3.2,1.4-3.2,3.2v3.1c0,0.2,0.1,0.3,0.3,0.3s0.3-0.1,0.3-0.3V10c0-1.5,1.2-2.6,2.6-2.6H16h0.1c1.1,0,2.1-0.5,2.7-1.4v3.8
			v0.1c0,1.4-0.8,2.7-2.1,3.7c-0.2,0.1-0.2,0.3-0.1,0.4c0.1,0.1,0.2,0.1,0.3,0.1S17,14,17.1,14c0.8-0.5,1.4-1.2,1.8-1.9V12.2z
			 M8.9,2.8c1-0.3,2-0.5,3.1-0.5c1.1,0,2.1,0.1,3.1,0.5c-0.9,0.8-2,1.3-3.1,1.3C10.9,4.1,9.8,3.6,8.9,2.8z M19,4L19,4
			c0,0.1,0,0.2,0,0.3c-2-1.8-4.4-2.7-7-2.7c-2.6,0-5.1,1-7,2.7C5,4.2,5,4.1,5,4V3l0.1-0.1C7,1.5,9.4,0.6,12,0.6c2.6,0,5,0.9,7,2.4V4
			z"/>
		<path class="st2" d="M24,12c0-3.7-1.7-7.1-4.4-9.3v0.8l0.1,0.1C20.1,4,20.6,4.5,20.9,5l-0.1,0.2c-0.6,0.6-0.5,1.6,0,2.2L21,7.6
			L20.8,8c-0.6,0.6-0.5,1.6,0,2.2l0.2,0.2l-0.2,0.3c-0.6,0.6-0.5,1.6,0,2.2l0.2,0.2l-0.2,0.3c-0.6,0.6-0.6,1.6,0,2.3l0.2,0.2
			c-0.6,0.8-0.6,2,0,2.7c0,0.1,0.1,0.1,0.1,0.1c-0.4,0.6-0.9,1.2-1.5,1.7v0.9C22.3,19.1,24,15.7,24,12z M22,17.3
			c-0.1,0.3-0.3,0.6-0.5,0.9c-0.4-0.5-0.4-1.2-0.1-1.8l0.7,0.8L22,17.3z M23.3,13.2c0,0.4-0.1,0.9-0.2,1.3l-1.8-2.1
			c-0.3-0.4-0.3-1,0-1.4l0.1-0.1l1.9,2.1V13.2z M23.4,12L23.4,12l-2.1-2.3c-0.3-0.4-0.3-1,0-1.4l0.1-0.2l1.9,2.2v0.1
			C23.4,10.9,23.4,11.4,23.4,12z M21.3,5.5c0.8,1.1,1.3,2.2,1.5,3.4L21.2,7C20.9,6.6,20.9,5.9,21.3,5.5z M21.3,13.8l0.1-0.2l1.4,1.7
			v0.1c-0.1,0.4-0.2,0.7-0.4,1.1l-1.1-1.3C21,14.8,21,14.2,21.3,13.8z"/>
		<g>
			<path class="st2" d="M11.3,16.8h1.3l0,0c0.2,0,0.3-0.1,0.3-0.3c0-0.2-0.1-0.3-0.3-0.3h-1.3l0,0c-0.2,0-0.3,0.1-0.3,0.3
				C11,16.7,11.1,16.8,11.3,16.8z"/>
			<path class="st2" d="M12.8,18.4h-1.9l0,0c-0.2,0-0.3,0.1-0.3,0.3c0,0.2,0.1,0.3,0.3,0.3h1.9l0,0c0.2,0,0.3-0.1,0.3-0.3
				C13.1,18.5,13,18.4,12.8,18.4z"/>
			<path class="st2" d="M9.3,16.5L9.3,16.5L9.3,16.5l0.1,0.2l0,0l0,0.1l0,0l0,0l0,0l0,0l0,0l0,0c0,0,0,0,0,0l0,0c0,0,0,0,0.1,0.1
				l0,0l0.1,0l0.1,0l0.1,0c0.4,0.3,1.1,0.7,1.9,0.7c0.8,0,1.4-0.3,1.8-0.6l0.1,0c0,0,0,0,0,0l0.1,0l0.1,0l0.1,0l0,0
				c0,0,0.1-0.1,0.1-0.1l0,0l0,0l0,0l0,0l0-0.1l0,0l0-0.1l0-0.1l0,0l0-0.1l0-0.1l0,0l0,0c0.1-0.1,0-0.3-0.1-0.4
				c-0.1,0-0.1-0.1-0.2-0.1l-0.1,0c0,0,0,0,0,0l-0.1,0l-0.1,0l-0.1,0l-0.1,0l-0.1-0.1l-0.2-0.1l-0.2-0.1l-0.1-0.1l-0.2-0.1l-0.1,0
				l0,0c-0.2-0.1-0.5,0-0.8,0.1l0,0l0,0c0,0,0,0,0,0c0,0-0.1,0-0.1,0c-0.3-0.2-0.6-0.2-0.8-0.1l0,0l-0.2,0.1l-0.3,0.1l-0.2,0.1
				l-0.2,0.1L10,15.8l-0.1,0.1c0,0,0,0,0,0l-0.1,0c0,0,0,0,0,0l-0.1,0c-0.1,0-0.1,0.1-0.1,0.1C9.3,16.1,9.2,16.3,9.3,16.5L9.3,16.5z
				 M10,16.4L10,16.4l0.2-0.1l0.1-0.1l0.1,0l0.2-0.1l0.2-0.1l0.2-0.1l0.1-0.1l0.2-0.1c0.1,0,0.2,0,0.3,0.1c0.1,0.1,0.3,0.1,0.3,0.1
				c0,0,0,0,0,0c0.1,0,0.2,0,0.3-0.1c0.1-0.1,0.2-0.1,0.3-0.1l0.1,0l0.1,0.1l0.1,0.1l0.2,0.1l0.2,0.1l0.2,0.1
				c0.1,0.1,0.3,0.1,0.4,0.2l0,0l0,0l0,0l0,0c0,0,0,0,0,0l0,0c0,0,0,0,0,0l0,0c0,0,0,0,0,0l0,0c-0.3,0.3-0.9,0.6-1.6,0.6
				c-0.8,0-1.4-0.3-1.7-0.7l0,0c0,0,0,0,0,0l0,0c0,0,0,0,0,0l0,0L10,16.4L10,16.4L10,16.4C10,16.4,10,16.4,10,16.4z"/>
		</g>
	</g>
</g>
</svg>
