<?xml version="1.0" encoding="utf-8"?>
<!-- Generator: Adobe Illustrator 26.0.0, SVG Export Plug-In . SVG Version: 6.00 Build 0)  -->
<svg version="1.1" id="Layer_1" xmlns="http://www.w3.org/2000/svg" xmlns:xlink="http://www.w3.org/1999/xlink" x="0px" y="0px"
	 viewBox="0 0 28 24" style="enable-background:new 0 0 28 24;" xml:space="preserve">
<style type="text/css">
	.st0{fill:#54565D;}
</style>
<path id="Shape" class="st0" d="M14,0c6.6,0,12,5.4,12,12s-5.4,12-12,12C7.4,24,2,18.6,2,12S7.4,0,14,0z M17.4,20.3l-0.5,0.6
	c-0.7,0.8-1.8,1.2-2.8,1.2c-1.1,0-2.1-0.4-2.8-1.2l0,0l-0.5-0.5v2.6c1.1,0.3,2.2,0.5,3.4,0.5c1.1,0,2.2-0.2,3.3-0.5l0.1,0V20.3z
	 M9.4,19v3.4c0.1,0.1,0.3,0.1,0.4,0.2l0.1,0.1v-3.1L9.4,19z M18.6,19L18,19.6v3.1c0.1-0.1,0.3-0.1,0.4-0.2l0.1-0.1V19z M8.2,17.6
	v4.2c0.1,0.1,0.3,0.2,0.4,0.2l0.1,0.1v-3.8c-0.2-0.2-0.3-0.4-0.5-0.6L8.2,17.6z M19.8,17.6c-0.2,0.2-0.3,0.4-0.5,0.6l-0.1,0.1v3.8
	c0.1-0.1,0.3-0.2,0.4-0.2l0.1-0.1V17.6z M10.2,3c-1.1,0.5-2.1,1.1-3,2c0.4,1,1.4,1.8,2.6,1.8l0.1,0h0.5c1.8,0,3.2,1.4,3.3,3.2l0,0.1
	v3.1c0,0.2-0.1,0.3-0.3,0.3c-0.2,0-0.3-0.1-0.3-0.3l0,0V10c0-1.4-1.2-2.6-2.6-2.6l0,0H9.8C8.7,7.4,7.6,6.9,7,6l0,0v3.8
	c0,1.4,0.8,2.8,2.1,3.8c0.1,0.1,0.2,0.3,0.1,0.5c-0.1,0.1-0.2,0.1-0.3,0.1c-0.1,0-0.1,0-0.2-0.1C8,13.6,7.4,12.9,7,12.2l0-0.1v0
	c0,2.1,0.8,4.1,2.2,5.7l0.1,0.1l2.4,2.5c0.6,0.7,1.5,1,2.4,1c0.9,0,1.7-0.4,2.3-1l0,0l2.4-2.5c1.5-1.5,2.3-3.6,2.3-5.7l0-0.1
	c-0.4,0.7-1,1.4-1.8,1.9c-0.1,0-0.1,0.1-0.2,0.1c-0.1,0-0.2,0-0.3-0.1c-0.1-0.1-0.1-0.3,0.1-0.5c1.3-1,2.1-2.3,2.1-3.7l0-0.1V6
	c-0.6,0.9-1.6,1.4-2.8,1.5l-0.1,0h-0.5c-1.4,0-2.6,1.2-2.6,2.6l0,0v3.1c0,0.2-0.1,0.3-0.3,0.3c-0.2,0-0.3-0.1-0.3-0.3l0,0V10
	c0-1.8,1.4-3.2,3.2-3.3l0.1,0h0.5c1.2,0,2.2-0.7,2.6-1.8c-0.9-0.9-1.9-1.5-3-2c-1.1,1.1-2.4,1.7-3.8,1.7C12.6,4.7,11.3,4.1,10.2,3z
	 M7,15.5V21c0.1,0.1,0.3,0.2,0.4,0.3l0.1,0.1v-4.7c0,0,0,0,0,0c-0.2-0.3-0.3-0.7-0.5-1L7,15.5z M21,15.5c-0.2,0.4-0.3,0.8-0.5,1.1
	c0,0,0,0,0,0l0,0v4.7c0.1-0.1,0.3-0.2,0.4-0.3L21,21V15.5z M6.3,3.5C5.9,3.9,5.5,4.4,5.1,4.8L5,4.9l0.1,0.2c0.5,0.6,0.6,1.6,0,2.3
	l0,0L4.9,7.6l0.2,0.2c0.5,0.6,0.6,1.6,0,2.3l0,0l-0.2,0.2l0.2,0.2c0.5,0.6,0.6,1.6,0,2.3l0,0l-0.2,0.2l0.2,0.2
	c0.5,0.6,0.6,1.6,0,2.3l0,0l-0.2,0.2c0.6,0.8,0.6,2,0,2.8c0,0,0,0.1-0.1,0.1c0.4,0.6,0.9,1.1,1.4,1.6l0.1,0.1V3.5z M21.7,3.5v17
	c0.6-0.5,1.1-1.1,1.5-1.7c0,0-0.1,0-0.1-0.1c-0.6-0.8-0.6-1.9-0.1-2.8l0,0l-0.2-0.2c-0.5-0.6-0.6-1.6,0-2.3l0,0l0.2-0.2l-0.2-0.2
	c-0.5-0.6-0.6-1.6,0-2.3l0,0l0.2-0.2l-0.2-0.2c-0.5-0.6-0.6-1.6,0-2.3l0,0l0.2-0.2l-0.2-0.2c-0.5-0.6-0.6-1.6,0-2.3l0,0L23,4.9
	c-0.4-0.5-0.8-0.9-1.2-1.3L21.7,3.5z M14.9,18.7c0.2,0,0.3,0.1,0.3,0.3c0,0.2-0.1,0.3-0.3,0.3l0,0h-2.1c-0.2,0-0.3-0.1-0.3-0.3
	c0-0.2,0.1-0.3,0.3-0.3l0,0H14.9z M4.5,16.4l-0.7,0.8c0.2,0.4,0.4,0.7,0.6,1C4.8,17.7,4.8,17,4.5,16.4z M23.5,16.4
	c-0.3,0.6-0.3,1.3,0.1,1.8c0.2-0.3,0.4-0.6,0.5-0.9l0.1-0.1L23.5,16.4z M13.1,15.3c0.3-0.1,0.6-0.1,0.9,0.1c0,0,0,0,0.1,0
	c0,0,0,0,0,0l0,0l0,0l0,0l0,0c0.3-0.2,0.6-0.2,0.8-0.1l0,0l0.1,0l0,0l0.3,0.1l0,0l0.1,0.1l0,0l0.2,0.1l0,0l0.2,0.1l0,0l0.1,0.1
	l0.1,0.1l0,0l0.1,0.1l0,0l0.1,0.1l0,0l0.1,0.1c0,0,0,0,0,0l0.1,0c0.1,0,0.1,0.1,0.2,0.1c0.1,0.1,0.2,0.3,0.1,0.4l0,0l0,0l0,0l0,0
	l0,0.1l0,0l0,0.1l0,0l0,0.1l0,0l0,0.1l0,0l0,0.1l0,0l0,0l0,0L16.6,17l0,0l0,0l0,0l0,0l0,0l0,0l0,0l0,0c0,0-0.1,0.1-0.1,0.1l-0.1,0.1
	l0,0l-0.1,0.1l0,0l-0.1,0.1l0,0l-0.1,0.1c0,0,0,0,0,0l-0.1,0c-0.5,0.3-1.1,0.6-2,0.6c-0.9,0-1.6-0.3-2.1-0.7l-0.1-0.1l0,0l-0.1-0.1
	l0,0l-0.1-0.1l0,0l-0.1-0.1c0,0,0,0-0.1-0.1l0,0c0,0,0,0,0,0l0,0l0,0l0,0l0,0l0,0l0,0l0,0l0,0l0,0l0,0l0,0l0,0l0-0.1l0,0l0,0l0,0
	l0-0.1l0,0l0,0l0,0l0-0.1l0,0l0,0c-0.1-0.1,0-0.3,0.1-0.4c0,0,0.1-0.1,0.2-0.1l0.1,0c0,0,0,0,0,0l0.1-0.1c0,0,0,0,0.1,0l0.2-0.1l0,0
	l0.2-0.1l0,0l0.2-0.1l0,0l0.2-0.1l0,0l0.3-0.1l0,0L13.1,15.3L13.1,15.3L13.1,15.3L13.1,15.3z M14.7,15.9c-0.1,0-0.2,0-0.3,0.1
	c-0.1,0.1-0.3,0.1-0.4,0.1c0,0,0,0,0,0c-0.1,0-0.2,0-0.4-0.1c-0.1-0.1-0.2-0.1-0.3-0.1L13.1,16l0,0L13,16l0,0l-0.2,0.1l0,0l-0.2,0.1
	l0,0l-0.2,0.1l0,0l-0.1,0l0,0l-0.1,0.1l0,0l-0.1,0l0,0l-0.1,0c0,0,0,0,0,0l0,0l0,0l0,0l0,0l0,0l0,0l0,0c0,0,0,0,0,0l0,0c0,0,0,0,0,0
	l0,0c0.4,0.3,0.9,0.7,1.8,0.7c0.8,0,1.4-0.3,1.7-0.6l0.1,0c0,0,0,0,0.1,0l0,0c0,0,0,0,0,0l0,0c0,0,0,0,0,0l0,0l0,0l0,0l0,0l0,0l0,0
	l0,0l0,0c-0.1-0.1-0.3-0.1-0.4-0.2l-0.2-0.1l0,0l-0.2-0.1l0,0l-0.2-0.1l0,0L14.9,16l0,0L14.7,15.9L14.7,15.9L14.7,15.9L14.7,15.9z
	 M14.7,16.3c0.2,0,0.3,0.1,0.3,0.3c0,0.2-0.1,0.3-0.3,0.3l0,0h-1.4c-0.2,0-0.3-0.1-0.3-0.3c0-0.2,0.1-0.3,0.3-0.3l0,0H14.7z
	 M4.5,13.7l-1.4,1.7c0.1,0.4,0.2,0.7,0.4,1.1l0.1,0.1l1.1-1.3c0.3-0.4,0.3-1,0-1.4l0,0L4.5,13.7z M23.5,13.7l-0.1,0.2
	c-0.3,0.4-0.3,1,0,1.4l0,0l1.1,1.3c0.2-0.4,0.3-0.7,0.4-1.1l0-0.1L23.5,13.7z M4.5,10.9l-1.9,2.2c0,0.5,0.1,0.9,0.2,1.4l0,0.1
	l1.8-2.1c0.3-0.4,0.3-1,0-1.4l0,0L4.5,10.9z M23.5,10.9l-0.1,0.2c-0.3,0.4-0.3,1,0,1.4l0,0l1.8,2.1c0.1-0.4,0.2-0.9,0.2-1.3l0-0.2
	L23.5,10.9z M23.5,8.1l-0.1,0.2c-0.3,0.4-0.3,1,0,1.4l0,0l2.1,2.4c0-0.1,0-0.1,0-0.2c0-0.6,0-1.1-0.1-1.7l0-0.1L23.5,8.1z M4.5,8.1
	l-1.8,2.1c-0.1,0.6-0.1,1.2-0.1,1.8l0,0.1l0,0l0,0.1l2.1-2.4c0.3-0.4,0.3-1,0-1.4l0,0L4.5,8.1z M10.4,8.1c1,0,1.8,0.8,1.8,1.8l0,0
	v0.2c0,0.2-0.1,0.3-0.3,0.3l0,0H9.5c-1,0-1.8-0.8-1.8-1.8l0,0V8.4c0-0.2,0.1-0.3,0.3-0.3l0,0H10.4z M20,8.1c0.2,0,0.3,0.1,0.3,0.3
	l0,0v0.2c0,1-0.8,1.8-1.8,1.8l0,0h-2.3c-0.2,0-0.3-0.1-0.3-0.3l0,0V9.9c0-1,0.8-1.8,1.8-1.8l0,0H20z M10.4,8.7h-2
	c0.1,0.6,0.5,1.1,1.2,1.1l0,0h2C11.5,9.2,11,8.8,10.4,8.7L10.4,8.7z M19.6,8.7h-2c-0.6,0-1.1,0.5-1.2,1.1l0,0h2
	C19.1,9.8,19.6,9.4,19.6,8.7L19.6,8.7z M23.4,5.5L23.4,5.5C23,5.9,23,6.6,23.3,6.9l0,0L25,8.9C24.7,7.7,24.1,6.6,23.4,5.5L23.4,5.5z
	 M4.6,5.5C3.9,6.5,3.4,7.6,3,8.8l0,0.1L4.6,7C5,6.6,5,6,4.6,5.5L4.6,5.5L4.6,5.5z M14,0.6c-2.6,0-5,0.9-6.9,2.3L7,3v1
	c0,0.1,0,0.2,0,0.3c1.9-1.7,4.4-2.7,7-2.7c2.6,0,5.1,1,7,2.7c0-0.1,0-0.2,0-0.2l0-0.1V3C19.1,1.5,16.6,0.6,14,0.6z M14,2.2
	c-1.1,0-2.1,0.2-3.2,0.5C11.8,3.6,12.9,4,14,4c1.1,0,2.2-0.5,3.2-1.3C16.2,2.4,15.1,2.2,14,2.2z"/>
</svg>
