<?xml version="1.0" encoding="utf-8"?>
<!-- Generator: Adobe Illustrator 26.0.0, SVG Export Plug-In . SVG Version: 6.00 Build 0)  -->
<svg version="1.1" id="Layer_1" xmlns="http://www.w3.org/2000/svg" xmlns:xlink="http://www.w3.org/1999/xlink" x="0px" y="0px"
	 viewBox="0 0 143 24" style="enable-background:new 0 0 143 24;" xml:space="preserve">
<style type="text/css">
	.st0{fill-rule:evenodd;clip-rule:evenodd;fill:#FFFFFF;}
	.st1{fill:#C2C8CE;}
	.st2{fill:#FFFFFF;}
</style>
<g id="IDENA">
	<g id="Idena-name" transform="translate(0.000000, 233.904738)">
		<polygon id="Fill-1" class="st0" points="31.1,-210.8 34.9,-210.8 34.9,-231.9 31.1,-231.9 		"/>
		<path id="Fill-2" class="st0" d="M126.5-231.9l-9.2,21.1h4.2l1.5-3.3h14.4l1.5,3.3h4.1l-9-21.1H126.5z M128.9-228.4h2.4l4.4,10.8
			h-11.4L128.9-228.4z"/>
		<polygon id="Fill-3" class="st0" points="108.6,-231.9 108.6,-216.2 94.6,-231.9 90.7,-231.9 90.7,-210.8 94.5,-210.8 
			94.5,-226.6 108.6,-210.8 112.5,-210.8 112.5,-231.9 		"/>
		<polygon id="Fill-4" class="st0" points="66.5,-231.9 66.5,-210.8 85.9,-210.8 85.9,-214.3 70.4,-214.3 70.4,-219.8 83.9,-219.8 
			83.9,-223.3 70.4,-223.3 70.4,-228.4 85.4,-228.4 85.4,-231.9 		"/>
		<path id="Fill-5" class="st0" d="M43.6-214.3h6.7c1.1,0,2.1-0.2,3.1-0.5c0.9-0.3,1.7-0.8,2.4-1.4c0.7-0.6,1.2-1.4,1.5-2.2
			c0.4-0.9,0.6-1.8,0.6-2.9c0-1-0.2-2-0.6-2.9c-0.4-0.9-0.9-1.6-1.5-2.2c-0.7-0.6-1.5-1.1-2.4-1.4c-0.9-0.3-2-0.5-3.1-0.5h-6.7
			V-214.3z M50.4-231.9c1.5,0,2.9,0.2,4.3,0.7c1.4,0.5,2.6,1.2,3.6,2.1c1.1,0.9,1.9,2,2.5,3.3s0.9,2.7,0.9,4.4c0,1.6-0.3,3.1-1,4.4
			c-0.6,1.3-1.5,2.4-2.5,3.3c-1,0.9-2.3,1.6-3.6,2.1c-1.4,0.5-2.8,0.7-4.3,0.7H39.7V-232h10.7V-231.9z"/>
	</g>
</g>
<g id="phaos_x5F_favicon">
	<g>
		<path class="st1" d="M5.7,20.9c0-2.1,0-4.2,0-6.4c0.1,0,0.2,0,0.3,0c2.4,0,4.8,0,7.2,0c1.6,0,2.7-0.7,3.5-2.1
			c1.1-2.1,0-4.8-2.4-5.4c-0.4-0.1-0.7-0.1-1.1-0.1c-0.6,0-1.2,0-1.8,0c-0.1,0-0.1,0-0.2,0c0-1.1,0-2.1,0-3.2c0,0,0.1,0,0.1,0
			c0.8,0,1.5,0,2.3,0c2.3,0.1,4.2,1.2,5.5,3.1c1.2,1.7,1.5,3.6,1,5.7c-0.5,2-1.7,3.5-3.5,4.5c-1,0.6-2.2,0.8-3.4,0.8
			c-1.3,0-2.7,0-4,0c-0.1,0-0.1,0-0.2,0c0,1.1,0,2.1,0,3.2C7.8,20.9,6.7,20.9,5.7,20.9z"/>
		<path class="st1" d="M5.7,12.3c0-2.9,0-5.7,0-8.6c1.1,0,2.1,0,3.2,0c0,1.8,0,3.6,0,5.4c0.1,0,0.2,0,0.3,0c1.4,0,2.7,0,4.1,0
			c1,0,1.7,0.8,1.6,1.7c-0.1,0.8-0.7,1.4-1.5,1.4c-0.4,0-0.8,0-1.2,0c-2.1,0-4.1,0-6.2,0C5.8,12.3,5.8,12.3,5.7,12.3z"/>
	</g>
	<g>
		<path class="st1" d="M12,2c5.5,0,10,4.5,10,10s-4.5,10-10,10S2,17.4,2,12S6.5,2,12,2 M12,0C5.4,0,0,5.4,0,12s5.4,12,12,12
			s12-5.4,12-12S18.6,0,12,0L12,0z"/>
	</g>
	<g>
		<path class="st2" d="M12,2.3c5.3,0,9.7,4.3,9.7,9.7s-4.3,9.7-9.7,9.7S2.3,17.3,2.3,12S6.6,2.3,12,2.3 M12,0.3
			C5.5,0.3,0.3,5.5,0.3,12S5.5,23.6,12,23.6S23.6,18.4,23.6,12S18.4,0.3,12,0.3L12,0.3z"/>
	</g>
	<g>
		<path class="st1" d="M12,2.6c5.2,0,9.4,4.2,9.4,9.4s-4.2,9.4-9.4,9.4S2.6,17.1,2.6,12S6.8,2.6,12,2.6 M12,0.6
			C5.7,0.6,0.6,5.7,0.6,12c0,6.3,5.1,11.4,11.4,11.4c6.3,0,11.4-5.1,11.4-11.4C23.3,5.7,18.2,0.6,12,0.6L12,0.6z"/>
	</g>
</g>
</svg>
