<?xml version="1.0" encoding="utf-8"?>
<!-- Generator: Adobe Illustrator 26.0.0, SVG Export Plug-In . SVG Version: 6.00 Build 0)  -->
<svg version="1.1" xmlns="http://www.w3.org/2000/svg" xmlns:xlink="http://www.w3.org/1999/xlink" x="0px" y="0px"
	 viewBox="0 0 143 24" style="enable-background:new 0 0 143 24;" xml:space="preserve">
<style type="text/css">
	.st0{fill-rule:evenodd;clip-rule:evenodd;fill:#FFFFFF;}
	.st1{fill:#C2C8CE;}
</style>
<g id="IDENA">
	<g id="Idena-name" transform="translate(0.000000, 233.904738)">
		<polygon id="Fill-1" class="st0" points="31.1,-210.8 34.9,-210.8 34.9,-231.9 31.1,-231.9 		"/>
		<path id="Fill-2" class="st0" d="M126.5-231.9l-9.2,21.1h4.2l1.5-3.3h14.4l1.5,3.3h4.1l-9-21.1H126.5z M128.9-228.4h2.4l4.4,10.8
			h-11.4L128.9-228.4z"/>
		<polygon id="Fill-3" class="st0" points="108.6,-231.9 108.6,-216.2 94.6,-231.9 90.7,-231.9 90.7,-210.8 94.5,-210.8 
			94.5,-226.6 108.6,-210.8 112.5,-210.8 112.5,-231.9 		"/>
		<polygon id="Fill-4" class="st0" points="66.5,-231.9 66.5,-210.8 85.9,-210.8 85.9,-214.3 70.4,-214.3 70.4,-219.8 83.9,-219.8 
			83.9,-223.3 70.4,-223.3 70.4,-228.4 85.4,-228.4 85.4,-231.9 		"/>
		<path id="Fill-5" class="st0" d="M43.6-214.3h6.7c1.1,0,2.1-0.2,3.1-0.5c0.9-0.3,1.7-0.8,2.4-1.4c0.7-0.6,1.2-1.4,1.5-2.2
			c0.4-0.9,0.6-1.8,0.6-2.9c0-1-0.2-2-0.6-2.9c-0.4-0.9-0.9-1.6-1.5-2.2c-0.7-0.6-1.5-1.1-2.4-1.4c-0.9-0.3-2-0.5-3.1-0.5h-6.7
			V-214.3z M50.4-231.9c1.5,0,2.9,0.2,4.3,0.7c1.4,0.5,2.6,1.2,3.6,2.1c1.1,0.9,1.9,2,2.5,3.3c0.6,1.3,0.9,2.7,0.9,4.4
			c0,1.6-0.3,3.1-1,4.4c-0.6,1.3-1.5,2.4-2.5,3.3c-1,0.9-2.3,1.6-3.6,2.1c-1.4,0.5-2.8,0.7-4.3,0.7H39.7v-21.1H50.4z"/>
	</g>
</g>
<g id="Layer_1">
</g>
<g id="Idena_Logo">
	<g id="Idena-logomark" transform="translate(23.000000, 8.000000)">
		<path id="Shape" class="st1" d="M-11-8c6.6,0,12,5.4,12,12s-5.4,12-12,12c-6.6,0-12-5.4-12-12S-17.6-8-11-8z M-7.7,12.3l-0.5,0.6
			C-8.9,13.6-10,14-11,14c-1,0-2.1-0.4-2.8-1.2l0,0l-0.5-0.5v2.6c1.1,0.3,2.2,0.5,3.3,0.5c1.1,0,2.2-0.2,3.2-0.5l0.1,0V12.3z
			 M-15.6,11v3.4c0.1,0.1,0.3,0.1,0.4,0.2l0.1,0.1v-3L-15.6,11z M-6.4,11L-7,11.6v3c0.1-0.1,0.3-0.1,0.4-0.2l0.1-0.1V11z M-16.8,9.6
			v4.2c0.1,0.1,0.3,0.2,0.4,0.2l0.1,0.1v-3.8c-0.2-0.2-0.3-0.4-0.5-0.6L-16.8,9.6z M-5.2,9.6c-0.2,0.2-0.3,0.4-0.5,0.6l-0.1,0.1v3.8
			c0.1-0.1,0.3-0.2,0.4-0.2l0.1-0.1V9.6z M-14.8-5c-1.1,0.5-2.1,1.1-3,2c0.4,1,1.4,1.7,2.5,1.8l0.1,0h0.5c1.8,0,3.2,1.4,3.2,3.2
			l0,0.1v3.1c0,0.2-0.1,0.3-0.3,0.3c-0.2,0-0.3-0.1-0.3-0.3l0,0V2c0-1.4-1.1-2.6-2.6-2.6l0,0h-0.5c-1.1,0-2.1-0.6-2.8-1.4l0,0v3.8
			c0,1.4,0.8,2.8,2.1,3.8c0.1,0.1,0.2,0.3,0.1,0.4c-0.1,0.1-0.2,0.1-0.3,0.1c-0.1,0-0.1,0-0.2-0.1C-17,5.5-17.6,4.9-18,4.2l0-0.1v0
			c0,2.1,0.8,4.1,2.2,5.7l0.1,0.1l2.3,2.5c0.6,0.6,1.5,1,2.4,1c0.9,0,1.7-0.4,2.3-1l0,0l2.3-2.5c1.4-1.5,2.3-3.5,2.3-5.7l0-0.1
			c-0.4,0.7-1,1.4-1.8,1.9c-0.1,0-0.1,0.1-0.2,0.1c-0.1,0-0.2,0-0.3-0.1c-0.1-0.1-0.1-0.3,0.1-0.4c1.3-1,2.1-2.3,2.1-3.7l0-0.1V-2
			c-0.6,0.9-1.6,1.4-2.7,1.4l-0.1,0h-0.5c-1.4,0-2.6,1.1-2.6,2.6l0,0v3.1c0,0.2-0.1,0.3-0.3,0.3c-0.2,0-0.3-0.1-0.3-0.3l0,0V2
			c0-1.8,1.4-3.2,3.2-3.2l0.1,0h0.5C-5.7-1.2-4.7-2-4.3-3c-0.9-0.8-1.9-1.5-3-2C-8.3-3.9-9.6-3.3-11-3.3C-12.4-3.3-13.7-3.9-14.8-5z
			 M-18,7.5V13c0.1,0.1,0.3,0.2,0.4,0.3l0.1,0.1V8.6c0,0,0,0,0,0c-0.2-0.3-0.3-0.7-0.5-1L-18,7.5z M-4.1,7.5
			c-0.2,0.4-0.3,0.7-0.5,1.1c0,0,0,0,0,0l0,0v4.7c0.1-0.1,0.3-0.2,0.4-0.3l0.1-0.1V7.5z M-18.6-4.5c-0.4,0.4-0.9,0.8-1.2,1.3L-20-3
			l0.1,0.2c0.5,0.6,0.6,1.6,0,2.2l0,0L-20-0.4l0.2,0.2c0.5,0.6,0.6,1.6,0,2.2l0,0L-20,2.4l0.2,0.2c0.5,0.6,0.6,1.6,0,2.2l0,0
			L-20,5.1l0.2,0.2c0.5,0.6,0.6,1.6,0,2.2l0,0L-20,7.9c0.6,0.8,0.6,2,0,2.8c0,0,0,0.1-0.1,0.1c0.4,0.6,0.9,1.1,1.4,1.6l0.1,0.1V-4.5
			z M-3.4-4.5v16.9c0.6-0.5,1.1-1.1,1.5-1.7c0,0-0.1,0-0.1-0.1C-2.6,9.9-2.6,8.7-2,7.9l0,0l-0.2-0.2C-2.8,7-2.8,6-2.2,5.4l0,0
			L-2,5.1l-0.2-0.2c-0.5-0.6-0.6-1.6,0-2.2l0,0L-2,2.4l-0.2-0.2c-0.5-0.6-0.6-1.6,0-2.2l0,0L-2-0.4l-0.2-0.2c-0.5-0.6-0.6-1.6,0-2.2
			l0,0L-2.1-3C-2.4-3.5-2.9-4-3.3-4.4L-3.4-4.5z M-10.1,10.6c0.2,0,0.3,0.1,0.3,0.3c0,0.2-0.1,0.3-0.3,0.3l0,0h-2.1
			c-0.2,0-0.3-0.1-0.3-0.3c0-0.2,0.1-0.3,0.3-0.3l0,0H-10.1z M-20.5,8.4l-0.7,0.8c0.2,0.4,0.4,0.7,0.6,1
			C-20.2,9.7-20.2,8.9-20.5,8.4z M-1.6,8.4c-0.3,0.6-0.3,1.3,0.1,1.8C-1.3,9.9-1.1,9.6-1,9.3l0.1-0.1L-1.6,8.4z M-12,7.3
			c0.3-0.1,0.6-0.1,0.9,0.1c0,0,0,0,0.1,0c0,0,0,0,0,0l0,0l0,0l0,0l0,0c0.3-0.2,0.6-0.2,0.8-0.1l0,0l0.1,0l0,0l0.3,0.1l0,0l0.1,0.1
			l0,0l0.2,0.1l0,0l0.2,0.1l0,0l0.1,0.1L-9,7.8l0,0l0.1,0.1l0,0l0.1,0.1l0,0l0.1,0.1c0,0,0,0,0,0l0.1,0c0.1,0,0.1,0.1,0.2,0.1
			c0.1,0.1,0.2,0.3,0.1,0.4l0,0l0,0l0,0l0,0l0,0.1l0,0l0,0.1l0,0l0,0l0,0l0,0.1l0,0l0,0.1l0,0l0,0l0,0L-8.5,9l0,0l0,0l0,0l0,0l0,0
			l0,0l0,0l0,0c0,0-0.1,0.1-0.1,0.1l-0.1,0l0,0l-0.1,0.1l0,0l-0.1,0.1l0,0l-0.1,0c0,0,0,0,0,0l-0.1,0c-0.5,0.3-1.1,0.6-2,0.6
			c-0.9,0-1.6-0.3-2.1-0.7l-0.1,0l0,0l-0.1-0.1l0,0l-0.1-0.1l0,0l-0.1,0c0,0,0,0-0.1-0.1l0,0c0,0,0,0,0,0l0,0l0,0l0,0l0,0l0,0l0,0
			l0,0l0,0l0,0l0,0l0,0l0,0l0-0.1l0,0l0,0l0,0l0-0.1l0,0l0,0l0,0l0-0.1l0,0l0,0c-0.1-0.1,0-0.3,0.1-0.4c0,0,0.1-0.1,0.2-0.1l0.1,0
			c0,0,0,0,0,0l0.1-0.1c0,0,0,0,0.1,0l0.2-0.1l0,0l0.2-0.1l0,0l0.2-0.1l0,0l0.2-0.1l0,0l0.3-0.1l0,0L-12,7.3L-12,7.3L-12,7.3
			L-12,7.3z M-10.3,7.9c-0.1,0-0.2,0-0.3,0.1C-10.8,8-10.9,8-11,8c0,0,0,0,0,0c-0.1,0-0.2,0-0.4-0.1c-0.1-0.1-0.2-0.1-0.3-0.1
			l-0.2,0.1l0,0L-12,8l0,0l-0.2,0.1l0,0l-0.2,0.1l0,0l-0.2,0.1l0,0l-0.1,0l0,0l-0.1,0.1l0,0l-0.1,0l0,0l-0.1,0c0,0,0,0,0,0l0,0l0,0
			l0,0l0,0l0,0l0,0l0,0c0,0,0,0,0,0l0,0c0,0,0,0,0,0l0,0c0.4,0.3,0.9,0.7,1.8,0.7c0.8,0,1.3-0.3,1.7-0.6l0.1,0c0,0,0,0,0,0l0,0
			c0,0,0,0,0,0l0,0c0,0,0,0,0,0l0,0l0,0l0,0l0,0l0,0l0,0l0,0l0,0c-0.1-0.1-0.3-0.1-0.4-0.2l-0.2-0.1l0,0l-0.2-0.1l0,0L-10,8l0,0
			L-10.1,8l0,0L-10.3,7.9L-10.3,7.9L-10.3,7.9L-10.3,7.9z M-10.3,8.3c0.2,0,0.3,0.1,0.3,0.3c0,0.2-0.1,0.3-0.3,0.3l0,0h-1.4
			c-0.2,0-0.3-0.1-0.3-0.3c0-0.2,0.1-0.3,0.3-0.3l0,0H-10.3z M-20.5,5.6l-1.4,1.7c0.1,0.4,0.2,0.7,0.4,1.1l0.1,0.1l1.1-1.3
			c0.3-0.4,0.3-1,0-1.4l0,0L-20.5,5.6z M-1.6,5.6l-0.1,0.2c-0.3,0.4-0.3,1,0,1.4l0,0l1.1,1.3c0.2-0.4,0.3-0.7,0.4-1.1l0-0.1
			L-1.6,5.6z M-20.5,2.9l-1.9,2.2c0,0.5,0.1,0.9,0.2,1.3l0,0.1l1.8-2.1c0.3-0.4,0.3-1,0-1.4l0,0L-20.5,2.9z M-1.6,2.9L-1.7,3
			c-0.3,0.4-0.3,1,0,1.4l0,0l1.8,2.1c0.1-0.4,0.2-0.9,0.2-1.3l0-0.2L-1.6,2.9z M-1.6,0.1l-0.1,0.2c-0.3,0.4-0.3,1,0,1.4l0,0l2.1,2.4
			c0,0,0-0.1,0-0.1c0-0.6,0-1.1-0.1-1.6l0-0.1L-1.6,0.1z M-20.5,0.1l-1.8,2.1c-0.1,0.6-0.1,1.2-0.1,1.8l0,0.1l0,0l0,0.1l2.1-2.4
			c0.3-0.4,0.3-1,0-1.4l0,0L-20.5,0.1z M-14.7,0.1c1,0,1.8,0.8,1.8,1.8l0,0v0.2c0,0.2-0.1,0.3-0.3,0.3l0,0h-2.3
			c-1,0-1.8-0.8-1.8-1.8l0,0V0.4c0-0.2,0.1-0.3,0.3-0.3l0,0H-14.7z M-5.1,0.1c0.2,0,0.3,0.1,0.3,0.3l0,0v0.2c0,1-0.8,1.8-1.8,1.8
			l0,0h-2.3c-0.2,0-0.3-0.1-0.3-0.3l0,0V1.9c0-1,0.8-1.8,1.8-1.8l0,0H-5.1z M-14.7,0.7h-2c0.1,0.6,0.5,1.1,1.1,1.1l0,0h2
			C-13.5,1.2-14,0.8-14.7,0.7L-14.7,0.7z M-5.4,0.7h-2c-0.6,0-1.1,0.5-1.2,1.1l0,0h2C-6,1.8-5.5,1.4-5.4,0.7L-5.4,0.7z M-1.7-2.5
			L-1.7-2.5c-0.4,0.4-0.4,1.1-0.1,1.5l0,0l1.6,1.9C-0.4-0.3-0.9-1.4-1.7-2.5L-1.7-2.5z M-20.4-2.5c-0.7,1-1.2,2.1-1.6,3.3l0,0.1
			l1.6-1.9C-20-1.4-20-2-20.4-2.5L-20.4-2.5L-20.4-2.5z M-11-7.4c-2.6,0-5,0.9-6.9,2.3L-18-5v1c0,0.1,0,0.2,0,0.3
			c1.9-1.7,4.4-2.7,7-2.7c2.6,0,5,0.9,7,2.7c0-0.1,0-0.2,0-0.2l0-0.1v-1C-6-6.5-8.4-7.4-11-7.4z M-11-5.7c-1.1,0-2.1,0.2-3.1,0.5
			c0.9,0.8,2,1.3,3.1,1.3c1.1,0,2.2-0.5,3.1-1.3C-8.9-5.6-9.9-5.7-11-5.7z"/>
	</g>
</g>
</svg>
