<?xml version="1.0" encoding="utf-8"?>
<!-- Generator: Adobe Illustrator 26.0.0, SVG Export Plug-In . SVG Version: 6.00 Build 0)  -->
<svg version="1.1" id="Layer_1" xmlns="http://www.w3.org/2000/svg" xmlns:xlink="http://www.w3.org/1999/xlink" x="0px" y="0px"
	 viewBox="0 0 283 64" style="enable-background:new 0 0 283 64;" xml:space="preserve">
<style type="text/css">
	.st0{fill:#414042;}
	.st1{fill:#1B75BC;}
	.st2{fill-rule:evenodd;clip-rule:evenodd;}
</style>
<g>
	<path class="st0" d="M65.1,44.8H51.4c-2.2,0-4-1.8-4-4v-6.2c0-2.2,1.8-4,4-4h13.6c0.5,0,1,0.1,1.4,0.2V16.6c0-2.9-2.4-5.3-5.3-5.3
		H5.3c-2.9,0-5.3,2.4-5.3,5.3V26h4.3l8.5-6.5h11c0.4-2.3,2.3-4,4.7-4c2.6,0,4.8,2.1,4.8,4.8S31.2,25,28.6,25c-2.5,0-4.6-2-4.8-4.5
		H13.4L4.9,27H0v6.2h12.4c0.3-1.9,1.9-3.4,3.9-3.4c2.2,0,4,1.8,4,4c0,2.2-1.8,4-4,4c-2,0-3.7-1.5-3.9-3.4H0v8.5h16.1
		c0.3-1.9,1.9-3.4,3.9-3.4c2.2,0,4,1.8,4,4c0,2.2-1.8,4-4,4c-2,0-3.7-1.5-3.9-3.4H0V50h4.7l0.2,0.2l6.4,6.4h6.6
		c0.1-2.6,2.2-4.6,4.8-4.6c2.6,0,4.8,2.1,4.8,4.8c0,2.6-2.1,4.8-4.8,4.8c-2.3,0-4.3-1.7-4.7-3.9h-7.1l-0.2-0.2l-6.4-6.4H0v7.6
		C0,61.6,2.4,64,5.3,64h55.8c2.9,0,5.3-2.4,5.3-5.3V44.6C66,44.7,65.6,44.8,65.1,44.8z"/>
	<circle class="st1" cx="22.5" cy="56.7" r="3.2"/>
	<ellipse class="st1" cx="28.6" cy="20.2" rx="3.2" ry="3.2"/>
	<path class="st1" d="M22.4,43.3c0-1.3-1.1-2.4-2.4-2.4s-2.4,1.1-2.4,2.4s1.1,2.4,2.4,2.4S22.4,44.6,22.4,43.3z"/>
	<path class="st1" d="M18.7,33.8c0-1.3-1.1-2.4-2.4-2.4S14,32.5,14,33.8s1.1,2.4,2.4,2.4C17.7,36.2,18.7,35.1,18.7,33.8z"/>
	<path class="st1" d="M65.1,31.8H51.4c-1.5,0-2.7,1.2-2.7,2.7v6.2c0,1.5,1.2,2.7,2.7,2.7h13.6c1.5,0,2.7-1.2,2.7-2.7v-6.2
		C67.8,33,66.6,31.8,65.1,31.8z M62.2,39.4c-1.2,0-2.1-0.8-2.1-1.7c0-1,1-1.7,2.1-1.7s2.1,0.8,2.1,1.7
		C64.4,38.6,63.4,39.4,62.2,39.4z"/>
	<path class="st1" d="M35.9,9.4l16.6-5.4c1.9-0.6,4,0,5.1,1.5l3.1,4.5L35.9,9.4z"/>
	<path class="st1" d="M30.2,9.5l11.1-8.6c1.3-1,3.2-1.2,4.5-0.4l4,2.2L30.2,9.5z"/>
</g>
<g id="IDENA">
	<g id="IDENA_00000049915304852175594920000009455902603933098164_">
		<g id="Idena-name" transform="translate(0.000000, 233.904738)">
			<polygon id="Fill-1" class="st2" points="73.9,-182.1 81,-182.1 81,-221.5 73.9,-221.5 			"/>
			<path id="Fill-2" class="st2" d="M252.2-221.5L235-182.1h7.8l2.8-6.2h26.9l2.8,6.2h7.7l-16.8-39.4H252.2z M256.7-215h4.5
				l8.2,20.2h-21.3L256.7-215z"/>
			<polygon id="Fill-3" class="st2" points="218.7,-221.5 218.7,-192.2 192.6,-221.5 185.3,-221.5 185.3,-182.1 192.4,-182.1 
				192.4,-211.6 218.7,-182.1 226,-182.1 226,-221.5 			"/>
			<polygon id="Fill-4" class="st2" points="140.1,-221.5 140.1,-182.1 176.3,-182.1 176.3,-188.6 147.3,-188.6 147.3,-198.9 
				172.6,-198.9 172.6,-205.5 147.3,-205.5 147.3,-215 175.4,-215 175.4,-221.5 			"/>
			<path id="Fill-5" class="st2" d="M97.3-188.6h12.5c2.1,0,3.9-0.4,5.8-0.9c1.7-0.6,3.2-1.5,4.5-2.6c1.3-1.1,2.2-2.6,2.8-4.1
				c0.7-1.7,1.1-3.4,1.1-5.4c0-1.9-0.4-3.7-1.1-5.4c-0.7-1.7-1.7-3-2.8-4.1c-1.3-1.1-2.8-2.1-4.5-2.6c-1.7-0.6-3.7-0.9-5.8-0.9H97.3
				V-188.6z M110-221.5c2.8,0,5.4,0.4,8,1.3c2.6,0.9,4.9,2.2,6.7,3.9c2.1,1.7,3.6,3.7,4.7,6.2c1.1,2.4,1.7,5,1.7,8.2
				c0,3-0.6,5.8-1.9,8.2c-1.1,2.4-2.8,4.5-4.7,6.2c-1.9,1.7-4.3,3-6.7,3.9c-2.6,0.9-5.2,1.3-8,1.3H90v-39.4h20V-221.5z"/>
		</g>
	</g>
</g>
</svg>
