<?xml version="1.0" encoding="utf-8"?>
<!-- Generator: Adobe Illustrator 26.0.0, SVG Export Plug-In . SVG Version: 6.00 Build 0)  -->
<svg version="1.1" id="Layer_1" xmlns="http://www.w3.org/2000/svg" xmlns:xlink="http://www.w3.org/1999/xlink" x="0px" y="0px"
	 viewBox="0 0 112 155" style="enable-background:new 0 0 112 155;" xml:space="preserve">
<style type="text/css">
	.st0{fill-rule:evenodd;clip-rule:evenodd;fill:#FEFAF1;}
</style>
<path id="形状" class="st0" d="M75.9,3.6c4.1-3.3,10.3-0.5,11.3,5.1l5.7,30.7c1.1,6.1,0.7,12.3-1.2,18L78,97.7l6,14
	c1.1,2.5,1.2,5.3,0.4,7.8l-5.2,15.2c-1.8,5.3-8,6.8-12.3,3c-2.8-2.4-8.1-6.9-13.8-10.9c0.1,1.8-0.1,3.6-0.7,5.4
	c-2.3,6.9-19,20.1-20.5,19.5c-1.5-0.7-5.8-23.5-3.5-30.4c0.6-1.7,1.5-3.3,2.6-4.5c-6.5-1.6-13.1-2.5-16.6-2.9
	c-5.3-0.7-9-6.6-7.2-11.9l5.2-15.2c0.8-2.5,2.6-4.4,4.9-5.4l12.7-5.5l13.7-40.4c1.9-5.6,5.3-10.5,9.7-14.1L75.9,3.6z M80.8,46.5
	c-2.8-2.4-6.3-4.9-10.7-6.9c-4.4-2-8.4-3-11.9-3.4c-1,1.5-1.9,3.1-2.5,4.8l-3,8.7c2.6-0.3,7.1-0.4,13,2.3c5.9,2.7,9.2,6.3,10.9,8.6
	l3-8.7C80.3,50.2,80.7,48.3,80.8,46.5z"/>
</svg>
